<?xml version="1.0" encoding="UTF-8"?><svg id="Layer_2" xmlns="http://www.w3.org/2000/svg" xmlns:xlink="http://www.w3.org/1999/xlink" viewBox="0 0 1836.44 1033"><defs><style>.cls-1{fill:url(#linear-gradient);}.cls-2{fill:url(#linear-gradient-179);}.cls-3{fill:url(#linear-gradient-178);}.cls-4{fill:url(#linear-gradient-177);}.cls-5{fill:url(#linear-gradient-176);}.cls-6{fill:url(#linear-gradient-137);}.cls-7{fill:url(#linear-gradient-133);}.cls-8{fill:url(#linear-gradient-132);}.cls-9{fill:url(#linear-gradient-130);}.cls-10{fill:url(#linear-gradient-135);}.cls-11{fill:url(#linear-gradient-131);}.cls-12{fill:url(#linear-gradient-136);}.cls-13{fill:url(#linear-gradient-134);}.cls-14{fill:url(#linear-gradient-139);}.cls-15{fill:url(#linear-gradient-138);}.cls-16{fill:url(#linear-gradient-117);}.cls-17{fill:url(#linear-gradient-118);}.cls-18{fill:url(#linear-gradient-111);}.cls-19{fill:url(#linear-gradient-112);}.cls-20{fill:url(#linear-gradient-127);}.cls-21{fill:url(#linear-gradient-128);}.cls-22{fill:url(#linear-gradient-110);}.cls-23{fill:url(#linear-gradient-113);}.cls-24{fill:url(#linear-gradient-114);}.cls-25{fill:url(#linear-gradient-115);}.cls-26{fill:url(#linear-gradient-116);}.cls-27{fill:url(#linear-gradient-119);}.cls-28{fill:url(#linear-gradient-106);}.cls-29{fill:url(#linear-gradient-107);}.cls-30{fill:url(#linear-gradient-109);}.cls-31{fill:url(#linear-gradient-108);}.cls-32{fill:url(#linear-gradient-104);}.cls-33{fill:url(#linear-gradient-103);}.cls-34{fill:url(#linear-gradient-102);}.cls-35{fill:url(#linear-gradient-105);}.cls-36{fill:url(#linear-gradient-123);}.cls-37{fill:url(#linear-gradient-129);}.cls-38{fill:url(#linear-gradient-122);}.cls-39{fill:url(#linear-gradient-121);}.cls-40{fill:url(#linear-gradient-101);}.cls-41{fill:url(#linear-gradient-100);}.cls-42{fill:url(#linear-gradient-126);}.cls-43{fill:url(#linear-gradient-125);}.cls-44{fill:url(#linear-gradient-124);}.cls-45{fill:url(#linear-gradient-120);}.cls-46{fill:url(#linear-gradient-157);}.cls-47{fill:url(#linear-gradient-154);}.cls-48{fill:url(#linear-gradient-152);}.cls-49{fill:url(#linear-gradient-155);}.cls-50{fill:url(#linear-gradient-151);}.cls-51{fill:url(#linear-gradient-156);}.cls-52{fill:url(#linear-gradient-150);}.cls-53{fill:url(#linear-gradient-153);}.cls-54{fill:url(#linear-gradient-164);}.cls-55{fill:url(#linear-gradient-161);}.cls-56{fill:url(#linear-gradient-163);}.cls-57{fill:url(#linear-gradient-165);}.cls-58{fill:url(#linear-gradient-167);}.cls-59{fill:url(#linear-gradient-162);}.cls-60{fill:url(#linear-gradient-160);}.cls-61{fill:url(#linear-gradient-159);}.cls-62{fill:url(#linear-gradient-158);}.cls-63{fill:url(#linear-gradient-144);}.cls-64{fill:url(#linear-gradient-145);}.cls-65{fill:url(#linear-gradient-148);}.cls-66{fill:url(#linear-gradient-149);}.cls-67{fill:url(#linear-gradient-171);}.cls-68{fill:url(#linear-gradient-146);}.cls-69{fill:url(#linear-gradient-143);}.cls-70{fill:url(#linear-gradient-169);}.cls-71{fill:url(#linear-gradient-141);}.cls-72{fill:url(#linear-gradient-140);}.cls-73{fill:url(#linear-gradient-147);}.cls-74{fill:url(#linear-gradient-142);}.cls-75{fill:url(#linear-gradient-168);}.cls-76{fill:url(#linear-gradient-166);}.cls-77{fill:url(#linear-gradient-174);}.cls-78{fill:url(#linear-gradient-172);}.cls-79{fill:url(#linear-gradient-175);}.cls-80{fill:url(#linear-gradient-170);}.cls-81{fill:url(#linear-gradient-173);}.cls-82{fill:url(#linear-gradient-8);}.cls-83{fill:url(#linear-gradient-9);}.cls-84{fill:url(#linear-gradient-3);}.cls-85{fill:url(#linear-gradient-4);}.cls-86{fill:url(#linear-gradient-2);}.cls-87{fill:url(#linear-gradient-6);}.cls-88{fill:url(#linear-gradient-7);}.cls-89{fill:url(#linear-gradient-5);}.cls-90{fill:url(#linear-gradient-59);}.cls-91{fill:url(#linear-gradient-57);}.cls-92{fill:url(#linear-gradient-58);}.cls-93{fill:url(#linear-gradient-55);}.cls-94{fill:url(#linear-gradient-56);}.cls-95{fill:url(#linear-gradient-53);}.cls-96{fill:url(#linear-gradient-54);}.cls-97{fill:url(#linear-gradient-51);}.cls-98{fill:url(#linear-gradient-52);}.cls-99{fill:url(#linear-gradient-50);}.cls-100{fill:url(#linear-gradient-77);}.cls-101{fill:url(#linear-gradient-78);}.cls-102{fill:url(#linear-gradient-79);}.cls-103{fill:url(#linear-gradient-74);}.cls-104{fill:url(#linear-gradient-75);}.cls-105{fill:url(#linear-gradient-76);}.cls-106{fill:url(#linear-gradient-70);}.cls-107{fill:url(#linear-gradient-71);}.cls-108{fill:url(#linear-gradient-72);}.cls-109{fill:url(#linear-gradient-73);}.cls-110{fill:url(#linear-gradient-68);}.cls-111{fill:url(#linear-gradient-67);}.cls-112{fill:url(#linear-gradient-69);}.cls-113{fill:url(#linear-gradient-64);}.cls-114{fill:url(#linear-gradient-63);}.cls-115{fill:url(#linear-gradient-66);}.cls-116{fill:url(#linear-gradient-65);}.cls-117{fill:url(#linear-gradient-60);}.cls-118{fill:url(#linear-gradient-62);}.cls-119{fill:url(#linear-gradient-61);}.cls-120{fill:url(#linear-gradient-98);}.cls-121{fill:url(#linear-gradient-91);}.cls-122{fill:url(#linear-gradient-95);}.cls-123{fill:url(#linear-gradient-99);}.cls-124{fill:url(#linear-gradient-96);}.cls-125{fill:url(#linear-gradient-97);}.cls-126{fill:url(#linear-gradient-94);}.cls-127{fill:url(#linear-gradient-92);}.cls-128{fill:url(#linear-gradient-93);}.cls-129{fill:url(#linear-gradient-90);}.cls-130{fill:url(#linear-gradient-81);}.cls-131{fill:url(#linear-gradient-80);}.cls-132{fill:url(#linear-gradient-88);}.cls-133{fill:url(#linear-gradient-89);}.cls-134{fill:url(#linear-gradient-87);}.cls-135{fill:url(#linear-gradient-86);}.cls-136{fill:url(#linear-gradient-85);}.cls-137{fill:url(#linear-gradient-84);}.cls-138{fill:url(#linear-gradient-83);}.cls-139{fill:url(#linear-gradient-82);}.cls-140{fill:url(#linear-gradient-41);}.cls-141{fill:url(#linear-gradient-40);}.cls-142{fill:url(#linear-gradient-43);}.cls-143{fill:url(#linear-gradient-42);}.cls-144{fill:url(#linear-gradient-45);}.cls-145{fill:url(#linear-gradient-46);}.cls-146{fill:url(#linear-gradient-44);}.cls-147{fill:url(#linear-gradient-49);}.cls-148{fill:url(#linear-gradient-47);}.cls-149{fill:url(#linear-gradient-48);}.cls-150{fill:url(#linear-gradient-14);}.cls-151{fill:url(#linear-gradient-18);}.cls-152{fill:url(#linear-gradient-22);}.cls-153{fill:url(#linear-gradient-20);}.cls-154{fill:url(#linear-gradient-21);}.cls-155{fill:url(#linear-gradient-23);}.cls-156{fill:url(#linear-gradient-15);}.cls-157{fill:url(#linear-gradient-19);}.cls-158{fill:url(#linear-gradient-16);}.cls-159{fill:url(#linear-gradient-17);}.cls-160{fill:url(#linear-gradient-13);}.cls-161{fill:url(#linear-gradient-12);}.cls-162{fill:url(#linear-gradient-10);}.cls-163{fill:url(#linear-gradient-11);}.cls-164{fill:url(#linear-gradient-27);}.cls-165{fill:url(#linear-gradient-24);}.cls-166{fill:url(#linear-gradient-26);}.cls-167{fill:url(#linear-gradient-38);}.cls-168{fill:url(#linear-gradient-35);}.cls-169{fill:url(#linear-gradient-37);}.cls-170{fill:url(#linear-gradient-34);}.cls-171{fill:url(#linear-gradient-39);}.cls-172{fill:url(#linear-gradient-36);}.cls-173{fill:url(#linear-gradient-25);}.cls-174{fill:url(#linear-gradient-28);}.cls-175{fill:url(#linear-gradient-29);}.cls-176{fill:url(#linear-gradient-33);}.cls-177{fill:url(#linear-gradient-30);}.cls-178{fill:url(#linear-gradient-32);}.cls-179{fill:url(#linear-gradient-31);}</style><linearGradient id="linear-gradient" x1="-3101.12" y1="-429.74" x2="-3101.14" y2="-428.76" gradientTransform="translate(207790.34 -14825) scale(67 -35)" gradientUnits="userSpaceOnUse"><stop offset="0" stop-color="#9ba5b0"/><stop offset="1" stop-color="#98a2ae"/></linearGradient><linearGradient id="linear-gradient-2" x1="-3118.47" y1="-403.42" x2="-3119.2" y2="-404.1" gradientTransform="translate(336869.73 -36136) scale(108 -91)" gradientUnits="userSpaceOnUse"><stop offset="0" stop-color="#bdc4cb"/><stop offset="1" stop-color="#bcc3ca"/></linearGradient><linearGradient id="linear-gradient-3" x1="-3121.03" y1="-400.71" x2="-3120.38" y2="-400.69" gradientTransform="translate(355759.4 -45402.5) scale(114 -114)" gradientUnits="userSpaceOnUse"><stop offset="0" stop-color="#9da7b2"/><stop offset="1" stop-color="#a3acb7"/></linearGradient><linearGradient id="linear-gradient-4" x1="-3108.96" y1="-397.42" x2="-3108.26" y2="-397.69" gradientTransform="translate(245604.67 -59000) scale(79 -149)" gradientUnits="userSpaceOnUse"><stop offset="0" stop-color="#9ba5b0"/><stop offset="1" stop-color="#a3acb6"/></linearGradient><linearGradient id="linear-gradient-5" x1="-31.31" y1="206.99" x2="-6.53" y2="181.7" gradientUnits="userSpaceOnUse"><stop offset="0" stop-color="#8e99a6"/><stop offset="1" stop-color="#949fab"/></linearGradient><linearGradient id="linear-gradient-6" x1="34.13" y1="34.59" x2="7.87" y2="7.3" gradientUnits="userSpaceOnUse"><stop offset="0" stop-color="#8e99a6"/><stop offset="1" stop-color="#8e99a6"/></linearGradient><linearGradient id="linear-gradient-7" x1="-3118.97" y1="-395.18" x2="-3118.16" y2="-395.16" gradientTransform="translate(330573.17 -80128) scale(106 -203)" xlink:href="#linear-gradient-5"/><linearGradient id="linear-gradient-8" x1="-3131.69" y1="-400.17" x2="-3131.77" y2="-400.82" gradientTransform="translate(610769.9 -45288.5) scale(195 -114)" gradientUnits="userSpaceOnUse"><stop offset="0" stop-color="#abb3bc"/><stop offset="1" stop-color="#b0b7c0"/></linearGradient><linearGradient id="linear-gradient-9" x1="-46.77" y1="286.56" x2="-4.49" y2="327.36" gradientUnits="userSpaceOnUse"><stop offset="0" stop-color="#abb3bc"/><stop offset="1" stop-color="#abb3bc"/></linearGradient><linearGradient id="linear-gradient-10" x1="-3132.35" y1="-406.11" x2="-3131.85" y2="-405.6" gradientTransform="translate(610769.9 -32854.5) scale(195 -82)" gradientUnits="userSpaceOnUse"><stop offset="0" stop-color="#abb4bd"/><stop offset="1" stop-color="#b0b7c0"/></linearGradient><linearGradient id="linear-gradient-11" x1="-3132.35" y1="-405.66" x2="-3131.85" y2="-405.19" gradientTransform="translate(610769.9 -33629.5) scale(195 -84)" xlink:href="#linear-gradient-10"/><linearGradient id="linear-gradient-12" x1="-3132.35" y1="-405.26" x2="-3131.85" y2="-404.79" gradientTransform="translate(610769.9 -34404.5) scale(195 -86)" xlink:href="#linear-gradient-10"/><linearGradient id="linear-gradient-13" x1="-3132.35" y1="-404.91" x2="-3131.85" y2="-404.4" gradientTransform="translate(610769.9 -35179.5) scale(195 -88)" gradientUnits="userSpaceOnUse"><stop offset="0" stop-color="#acb4bd"/><stop offset="1" stop-color="#b0b7c0"/></linearGradient><linearGradient id="linear-gradient-14" x1="-3131.32" y1="-394.54" x2="-3132.05" y2="-395.25" gradientTransform="translate(610769.9 -80904.5) scale(195 -206)" gradientUnits="userSpaceOnUse"><stop offset="0" stop-color="#b5bcc4"/><stop offset="1" stop-color="#b5bcc4"/></linearGradient><linearGradient id="linear-gradient-15" x1="-38.28" y1="606.8" x2="-.43" y2="568.31" gradientUnits="userSpaceOnUse"><stop offset="0" stop-color="#acb4bd"/><stop offset="1" stop-color="#b5bcc4"/></linearGradient><linearGradient id="linear-gradient-16" x1="-66.94" y1="604.53" x2="-27.2" y2="642.72" gradientUnits="userSpaceOnUse"><stop offset="0" stop-color="#c4cad0"/><stop offset="1" stop-color="#c3c9cf"/></linearGradient><linearGradient id="linear-gradient-17" x1="-3135.17" y1="-397.88" x2="-3134.55" y2="-397.69" gradientTransform="translate(742997.57 -58520) scale(237 -149)" gradientUnits="userSpaceOnUse"><stop offset="0" stop-color="#c5cbd1"/><stop offset="1" stop-color="#ced3d8"/></linearGradient><linearGradient id="linear-gradient-18" x1="-.77" y1="728.61" x2="69.09" y2="801.16" gradientUnits="userSpaceOnUse"><stop offset="0" stop-color="#cdd2d7"/><stop offset="1" stop-color="#d4d8dc"/></linearGradient><linearGradient id="linear-gradient-19" x1="98.07" y1="131.55" x2="57.7" y2="88.69" gradientUnits="userSpaceOnUse"><stop offset="0" stop-color="#909ba8"/><stop offset="1" stop-color="#95a0ac"/></linearGradient><linearGradient id="linear-gradient-20" x1="-3135.02" y1="-399.99" x2="-3134.62" y2="-399.19" gradientTransform="translate(742997.57 -49458.5) scale(237 -126)" gradientUnits="userSpaceOnUse"><stop offset="0" stop-color="#d5d9dd"/><stop offset="1" stop-color="#d4d8dc"/></linearGradient><linearGradient id="linear-gradient-21" x1="-3133.7" y1="-404.37" x2="-3133.08" y2="-403.56" gradientTransform="translate(667495.9 -36136) scale(213 -91)" gradientUnits="userSpaceOnUse"><stop offset="0" stop-color="#c1c7ce"/><stop offset="1" stop-color="#c5cbd1"/></linearGradient><linearGradient id="linear-gradient-22" x1="60.17" y1="978.15" x2="28.67" y2="1010.64" gradientUnits="userSpaceOnUse"><stop offset="0" stop-color="#e9ebed"/><stop offset="1" stop-color="#dfe2e6"/></linearGradient><linearGradient id="linear-gradient-23" x1="-3132.7" y1="-393.47" x2="-3133.39" y2="-394.23" gradientTransform="translate(667462.9 -94408.5) scale(213 -242)" gradientUnits="userSpaceOnUse"><stop offset="0" stop-color="#dcdfe3"/><stop offset="1" stop-color="#dfe2e6"/></linearGradient><linearGradient id="linear-gradient-24" x1="-3132.85" y1="-403.36" x2="-3133.2" y2="-404.05" gradientTransform="translate(667505.9 -36616) scale(213 -91)" gradientUnits="userSpaceOnUse"><stop offset="0" stop-color="#a2abb6"/><stop offset="1" stop-color="#a1abb5"/></linearGradient><linearGradient id="linear-gradient-25" x1="-3132.7" y1="-394.51" x2="-3133.27" y2="-395.15" gradientTransform="translate(667495.9 -80664.5) scale(213 -206)" gradientUnits="userSpaceOnUse"><stop offset="0" stop-color="#ced3d8"/><stop offset="1" stop-color="#ced3d8"/></linearGradient><linearGradient id="linear-gradient-26" x1="-3133.7" y1="-395.51" x2="-3132.99" y2="-394.82" gradientTransform="translate(667546.9 -80904.5) scale(213 -206)" gradientUnits="userSpaceOnUse"><stop offset="0" stop-color="#bdc4cb"/><stop offset="1" stop-color="#bec5cc"/></linearGradient><linearGradient id="linear-gradient-27" x1="-3132.7" y1="-400.51" x2="-3133.32" y2="-401.36" gradientTransform="translate(667546.9 -43963) scale(213 -111)" gradientUnits="userSpaceOnUse"><stop offset="0" stop-color="#c8ced4"/><stop offset="1" stop-color="#c5cbd1"/></linearGradient><linearGradient id="linear-gradient-28" x1="-3132.7" y1="-394.51" x2="-3133.59" y2="-395.15" gradientTransform="translate(667505.9 -81144.5) scale(213 -206)" gradientUnits="userSpaceOnUse"><stop offset="0" stop-color="#a7b0ba"/><stop offset="1" stop-color="#a3acb6"/></linearGradient><linearGradient id="linear-gradient-29" x1="-3133.32" y1="-401.51" x2="-3133.2" y2="-400.85" gradientTransform="translate(667552.9 -44203) scale(213 -111)" gradientUnits="userSpaceOnUse"><stop offset="0" stop-color="#b5bcc4"/><stop offset="1" stop-color="#b1b8c1"/></linearGradient><linearGradient id="linear-gradient-30" x1="-3133.7" y1="-395.51" x2="-3132.81" y2="-394.82" gradientTransform="translate(667552.9 -81144.5) scale(213 -206)" gradientUnits="userSpaceOnUse"><stop offset="0" stop-color="#abb3bc"/><stop offset="1" stop-color="#afb7bf"/></linearGradient><linearGradient id="linear-gradient-31" x1="205.16" y1="146.8" x2="137.98" y2="81.48" gradientUnits="userSpaceOnUse"><stop offset="0" stop-color="#9fa8b3"/><stop offset="1" stop-color="#a0aab4"/></linearGradient><linearGradient id="linear-gradient-32" x1="-3103.89" y1="-398.19" x2="-3103.17" y2="-397.92" gradientTransform="translate(217483.17 -58040.5) scale(70 -146)" gradientUnits="userSpaceOnUse"><stop offset="0" stop-color="#a2abb6"/><stop offset="1" stop-color="#a3acb7"/></linearGradient><linearGradient id="linear-gradient-33" x1="-3132.7" y1="-398.89" x2="-3133.4" y2="-399.19" gradientTransform="translate(667633.9 -51067) scale(213 -129)" gradientUnits="userSpaceOnUse"><stop offset="0" stop-color="#c7cdd3"/><stop offset="1" stop-color="#bec5cc"/></linearGradient><linearGradient id="linear-gradient-34" x1="-3133.08" y1="-398.12" x2="-3133.2" y2="-399.02" gradientTransform="translate(667633.9 -53890.5) scale(213 -136)" gradientUnits="userSpaceOnUse"><stop offset="0" stop-color="#b6bdc5"/><stop offset="1" stop-color="#bdc4cb"/></linearGradient><linearGradient id="linear-gradient-35" x1="-3133.7" y1="-395.51" x2="-3133.12" y2="-394.82" gradientTransform="translate(667675.9 -80664.5) scale(213 -206)" gradientUnits="userSpaceOnUse"><stop offset="0" stop-color="#dcdfe3"/><stop offset="1" stop-color="#dadee2"/></linearGradient><linearGradient id="linear-gradient-36" x1="-3132.7" y1="-398.89" x2="-3133.27" y2="-399.19" gradientTransform="translate(667708.9 -50827) scale(213 -129)" gradientUnits="userSpaceOnUse"><stop offset="0" stop-color="#e1e4e7"/><stop offset="1" stop-color="#dadee2"/></linearGradient><linearGradient id="linear-gradient-37" x1="-3131.1" y1="-398.4" x2="-3130.32" y2="-397.52" gradientTransform="translate(566974.01 -58040.5) scale(181 -146)" gradientUnits="userSpaceOnUse"><stop offset="0" stop-color="#a7b0ba"/><stop offset="1" stop-color="#a8b1bb"/></linearGradient><linearGradient id="linear-gradient-38" x1="302.98" y1="80.73" x2="276.12" y2="52.78" gradientUnits="userSpaceOnUse"><stop offset="0" stop-color="#a4adb7"/><stop offset="1" stop-color="#a6afb9"/></linearGradient><linearGradient id="linear-gradient-39" x1="-3133.7" y1="-398.93" x2="-3133.08" y2="-398.62" gradientTransform="translate(667708.9 -53650.5) scale(213 -136)" gradientUnits="userSpaceOnUse"><stop offset="0" stop-color="#ced3d8"/><stop offset="1" stop-color="#d5d9dd"/></linearGradient><linearGradient id="linear-gradient-40" x1="-3133.48" y1="-399.69" x2="-3133.2" y2="-398.79" gradientTransform="translate(667718.9 -51307) scale(213 -129)" gradientUnits="userSpaceOnUse"><stop offset="0" stop-color="#b6bdc5"/><stop offset="1" stop-color="#b2b9c2"/></linearGradient><linearGradient id="linear-gradient-41" x1="-3132.85" y1="-398.11" x2="-3133.2" y2="-399.02" gradientTransform="translate(667718.9 -54130.5) scale(213 -136)" gradientUnits="userSpaceOnUse"><stop offset="0" stop-color="#adb5be"/><stop offset="1" stop-color="#b2b9c2"/></linearGradient><linearGradient id="linear-gradient-42" x1="-3133.7" y1="-402.38" x2="-3132.99" y2="-401.88" gradientTransform="translate(667759.9 -41354.5) scale(213 -104)" gradientUnits="userSpaceOnUse"><stop offset="0" stop-color="#c8ced4"/><stop offset="1" stop-color="#d1d5da"/></linearGradient><linearGradient id="linear-gradient-43" x1="-3132.92" y1="-401.38" x2="-3133.2" y2="-402.38" gradientTransform="translate(667765.9 -41594.5) scale(213 -104)" gradientUnits="userSpaceOnUse"><stop offset="0" stop-color="#bbc2c9"/><stop offset="1" stop-color="#bec5cc"/></linearGradient><linearGradient id="linear-gradient-44" x1="-3132.7" y1="-398.12" x2="-3133.32" y2="-398.62" gradientTransform="translate(667759.9 -53650.5) scale(213 -136)" gradientUnits="userSpaceOnUse"><stop offset="0" stop-color="#dadee2"/><stop offset="1" stop-color="#d5d9dd"/></linearGradient><linearGradient id="linear-gradient-45" x1="-3133.32" y1="-399.12" x2="-3133.2" y2="-398.12" gradientTransform="translate(667765.9 -53890.5) scale(213 -136)" xlink:href="#linear-gradient-33"/><linearGradient id="linear-gradient-46" x1="301.07" y1="885.99" x2="221.93" y2="967.35" gradientUnits="userSpaceOnUse"><stop offset="0" stop-color="#fbfbfc"/><stop offset="1" stop-color="#ebedef"/></linearGradient><linearGradient id="linear-gradient-47" x1="-3132.71" y1="-392.02" x2="-3133.36" y2="-392.64" gradientTransform="translate(667675.9 -124323) scale(213 -319)" gradientUnits="userSpaceOnUse"><stop offset="0" stop-color="#e7e9ec"/><stop offset="1" stop-color="#ebedef"/></linearGradient><linearGradient id="linear-gradient-48" x1="477.78" y1="59.92" x2="443.42" y2="23.51" gradientUnits="userSpaceOnUse"><stop offset="0" stop-color="#b0b8c0"/><stop offset="1" stop-color="#afb7bf"/></linearGradient><linearGradient id="linear-gradient-49" x1="-3103.53" y1="-395.94" x2="-3104.31" y2="-396.54" gradientTransform="translate(220844.45 -67728) scale(71 -171)" gradientUnits="userSpaceOnUse"><stop offset="0" stop-color="#b1b8c1"/><stop offset="1" stop-color="#b5bcc4"/></linearGradient><linearGradient id="linear-gradient-50" x1="-3124.75" y1="-394.08" x2="-3123.77" y2="-394.02" gradientTransform="translate(412836.4 -94190.5) scale(132 -240)" gradientUnits="userSpaceOnUse"><stop offset="0" stop-color="#c7cdd3"/><stop offset="1" stop-color="#d1d5da"/></linearGradient><linearGradient id="linear-gradient-51" x1="-3133.7" y1="-402.39" x2="-3133.12" y2="-401.89" gradientTransform="translate(667888.9 -41114.5) scale(213 -104)" gradientUnits="userSpaceOnUse"><stop offset="0" stop-color="#e7e9ec"/><stop offset="1" stop-color="#eceef0"/></linearGradient><linearGradient id="linear-gradient-52" x1="-3112.58" y1="-394.52" x2="-3112.04" y2="-394" gradientTransform="translate(271289.89 -94190.5) scale(87 -240)" gradientUnits="userSpaceOnUse"><stop offset="0" stop-color="#dadee2"/><stop offset="1" stop-color="#d4d8dc"/></linearGradient><linearGradient id="linear-gradient-53" x1="-3124.77" y1="-397.46" x2="-3125.59" y2="-397.99" gradientTransform="translate(431801.06 -57147) scale(138 -145)" gradientUnits="userSpaceOnUse"><stop offset="0" stop-color="#e1e3e7"/><stop offset="1" stop-color="#dee1e5"/></linearGradient><linearGradient id="linear-gradient-54" x1="-3131.11" y1="-396.95" x2="-3130.33" y2="-396.05" gradientTransform="translate(567187.01 -67728) scale(181 -171)" gradientUnits="userSpaceOnUse"><stop offset="0" stop-color="#bbc2c9"/><stop offset="1" stop-color="#bac1c8"/></linearGradient><linearGradient id="linear-gradient-55" x1="521.58" y1="97.83" x2="488.41" y2="65.32" gradientUnits="userSpaceOnUse"><stop offset="0" stop-color="#b6bdc5"/><stop offset="1" stop-color="#b8bfc7"/></linearGradient><linearGradient id="linear-gradient-56" x1="522.5" y1="819.86" x2="428.63" y2="917.4" gradientUnits="userSpaceOnUse"><stop offset="0" stop-color="#f3f4f6"/><stop offset="1" stop-color="#f7f8f9"/></linearGradient><linearGradient id="linear-gradient-57" x1="-3132.71" y1="-392.01" x2="-3133.46" y2="-392.51" gradientTransform="translate(667888.9 -124323) scale(213 -319)" gradientUnits="userSpaceOnUse"><stop offset="0" stop-color="#f8f9f9"/><stop offset="1" stop-color="#f7f8f9"/></linearGradient><linearGradient id="linear-gradient-58" x1="-3131.02" y1="-393.88" x2="-3130.14" y2="-393.8" gradientTransform="translate(564028.73 -97447) scale(180 -249)" gradientUnits="userSpaceOnUse"><stop offset="0" stop-color="#e1e4e7"/><stop offset="1" stop-color="#eceef0"/></linearGradient><linearGradient id="linear-gradient-59" x1="-3133.48" y1="-402.38" x2="-3133.2" y2="-401.84" gradientTransform="translate(667931.9 -41594.5) scale(213 -104)" gradientUnits="userSpaceOnUse"><stop offset="0" stop-color="#c7cdd3"/><stop offset="1" stop-color="#c7cdd3"/></linearGradient><linearGradient id="linear-gradient-60" x1="-3132.92" y1="-404.29" x2="-3133.2" y2="-404.84" gradientTransform="translate(667978.9 -34524.5) scale(213 -86)" gradientUnits="userSpaceOnUse"><stop offset="0" stop-color="#d4d8dc"/><stop offset="1" stop-color="#d3d7db"/></linearGradient><linearGradient id="linear-gradient-61" x1="-3122.63" y1="-393.64" x2="-3123.46" y2="-393.8" gradientTransform="translate(394159.73 -97447) scale(126 -249)" gradientUnits="userSpaceOnUse"><stop offset="0" stop-color="#f1f3f4"/><stop offset="1" stop-color="#eceef0"/></linearGradient><linearGradient id="linear-gradient-62" x1="-3132.7" y1="-394.08" x2="-3133.51" y2="-394.25" gradientTransform="translate(667978.9 -90703) scale(213 -231)" gradientUnits="userSpaceOnUse"><stop offset="0" stop-color="#dfe2e6"/><stop offset="1" stop-color="#d4d8dc"/></linearGradient><linearGradient id="linear-gradient-63" x1="-3132.85" y1="-393.75" x2="-3133.2" y2="-394.54" gradientTransform="translate(667931.9 -90943) scale(213 -231)" gradientUnits="userSpaceOnUse"><stop offset="0" stop-color="#bec5cc"/><stop offset="1" stop-color="#c7cdd3"/></linearGradient><linearGradient id="linear-gradient-64" x1="-3111.3" y1="-397.36" x2="-3110.61" y2="-396.83" gradientTransform="translate(261974.06 -64036) scale(84 -163)" gradientUnits="userSpaceOnUse"><stop offset="0" stop-color="#f8f9f9"/><stop offset="1" stop-color="#f6f7f8"/></linearGradient><linearGradient id="linear-gradient-65" x1="-3125.77" y1="-397.88" x2="-3125.09" y2="-397.02" gradientTransform="translate(432014.06 -60548.5) scale(138 -154)" gradientUnits="userSpaceOnUse"><stop offset="0" stop-color="#fafafb"/><stop offset="1" stop-color="#f6f7f8"/></linearGradient><linearGradient id="linear-gradient-66" x1="-3124.75" y1="-394.16" x2="-3123.77" y2="-394.02" gradientTransform="translate(413049.4 -94113.5) scale(132 -240)" gradientUnits="userSpaceOnUse"><stop offset="0" stop-color="#e1e3e7"/><stop offset="1" stop-color="#e8eaed"/></linearGradient><linearGradient id="linear-gradient-67" x1="723.83" y1="806.7" x2="622.75" y2="915.14" gradientUnits="userSpaceOnUse"><stop offset="0" stop-color="#e6e8eb"/><stop offset="1" stop-color="#f5f6f7"/></linearGradient><linearGradient id="linear-gradient-68" x1="701.91" y1="68.17" x2="662.29" y2="26.66" gradientUnits="userSpaceOnUse"><stop offset="0" stop-color="#c2c8cf"/><stop offset="1" stop-color="#c0c7cd"/></linearGradient><linearGradient id="linear-gradient-69" x1="-3132.93" y1="-404.29" x2="-3133.2" y2="-404.84" gradientTransform="translate(668112.9 -34764.5) scale(213 -86)" gradientUnits="userSpaceOnUse"><stop offset="0" stop-color="#cbd0d5"/><stop offset="1" stop-color="#cacfd5"/></linearGradient><linearGradient id="linear-gradient-70" x1="-3128.8" y1="-428.74" x2="-3128.84" y2="-429.62" gradientTransform="translate(513847.29 -15028) scale(164 -35)" gradientUnits="userSpaceOnUse"><stop offset="0" stop-color="#c3c9cf"/><stop offset="1" stop-color="#c5cbd1"/></linearGradient><linearGradient id="linear-gradient-71" x1="-3133.55" y1="-394.75" x2="-3133.2" y2="-393.92" gradientTransform="translate(668112.9 -90943) scale(213 -231)" gradientUnits="userSpaceOnUse"><stop offset="0" stop-color="#d4d8dc"/><stop offset="1" stop-color="#cacfd5"/></linearGradient><linearGradient id="linear-gradient-72" x1="810.32" y1="915.76" x2="599.97" y2="860.86" gradientUnits="userSpaceOnUse"><stop offset="0" stop-color="#eceef1"/><stop offset="1" stop-color="#f4f5f6"/></linearGradient><linearGradient id="linear-gradient-73" x1="-3131.02" y1="-395.47" x2="-3130.14" y2="-395.41" gradientTransform="translate(564241.73 -76391) scale(180 -195)" xlink:href="#linear-gradient-65"/><linearGradient id="linear-gradient-74" x1="-3122.83" y1="-393.64" x2="-3123.46" y2="-393.96" gradientTransform="translate(397469.01 -94408.5) scale(127 -242)" gradientUnits="userSpaceOnUse"><stop offset="0" stop-color="#e7e9ec"/><stop offset="1" stop-color="#e7e9ec"/></linearGradient><linearGradient id="linear-gradient-75" x1="742.9" y1="895.5" x2="779.84" y2="931.69" gradientUnits="userSpaceOnUse"><stop offset="0" stop-color="#e1e4e7"/><stop offset="1" stop-color="#e7e9ec"/></linearGradient><linearGradient id="linear-gradient-76" x1="-3083.91" y1="-400.39" x2="-3084.39" y2="-401" gradientTransform="translate(151959.34 -44865.5) scale(49 -112)" gradientUnits="userSpaceOnUse"><stop offset="0" stop-color="#cdd2d7"/><stop offset="1" stop-color="#d1d5da"/></linearGradient><linearGradient id="linear-gradient-77" x1="848.67" y1="55.76" x2="821.49" y2="26.11" gradientUnits="userSpaceOnUse"><stop offset="0" stop-color="#cdd2d7"/><stop offset="1" stop-color="#ccd1d6"/></linearGradient><linearGradient id="linear-gradient-78" x1="-3129.22" y1="-393.7" x2="-3130.2" y2="-394.02" gradientTransform="translate(539106.51 -94113.5) scale(172 -240)" gradientUnits="userSpaceOnUse"><stop offset="0" stop-color="#eff1f3"/><stop offset="1" stop-color="#e8eaed"/></linearGradient><linearGradient id="linear-gradient-79" x1="-3122.63" y1="-395.32" x2="-3123.46" y2="-395.41" gradientTransform="translate(394372.73 -76391) scale(126 -195)" gradientUnits="userSpaceOnUse"><stop offset="0" stop-color="#eff1f2"/><stop offset="1" stop-color="#f6f7f8"/></linearGradient><linearGradient id="linear-gradient-80" x1="-3134.1" y1="-395.9" x2="-3133.2" y2="-395.11" gradientTransform="translate(687075.57 -76631) scale(219 -195)" gradientUnits="userSpaceOnUse"><stop offset="0" stop-color="#f1f3f4"/><stop offset="1" stop-color="#f5f6f7"/></linearGradient><linearGradient id="linear-gradient-81" x1="-3133.09" y1="-396.53" x2="-3133.9" y2="-397.38" gradientTransform="translate(687075.57 -62988.5) scale(219 -160)" xlink:href="#linear-gradient-65"/><linearGradient id="linear-gradient-82" x1="-3130.12" y1="-393.52" x2="-3130.99" y2="-394.34" gradientTransform="translate(567400.01 -94353.5) scale(181 -240)" gradientUnits="userSpaceOnUse"><stop offset="0" stop-color="#d6dade"/><stop offset="1" stop-color="#d9dde1"/></linearGradient><linearGradient id="linear-gradient-83" x1="-3129.57" y1="-393.41" x2="-3128.66" y2="-393.07" gradientTransform="translate(520222.84 -111791) scale(166 -285)" gradientUnits="userSpaceOnUse"><stop offset="0" stop-color="#dfe2e6"/><stop offset="1" stop-color="#e3e5e9"/></linearGradient><linearGradient id="linear-gradient-84" x1="-3111.3" y1="-397.25" x2="-3110.61" y2="-397.03" gradientTransform="translate(262187.06 -62748.5) scale(84 -160)" gradientUnits="userSpaceOnUse"><stop offset="0" stop-color="#eceef1"/><stop offset="1" stop-color="#ebedef"/></linearGradient><linearGradient id="linear-gradient-85" x1="-3125.77" y1="-397.53" x2="-3125.09" y2="-396.64" gradientTransform="translate(432227.06 -62748.5) scale(138 -160)" gradientUnits="userSpaceOnUse"><stop offset="0" stop-color="#e7e9ec"/><stop offset="1" stop-color="#eaecef"/></linearGradient><linearGradient id="linear-gradient-86" x1="-3123.75" y1="-393.52" x2="-3124.27" y2="-394.35" gradientTransform="translate(413262.4 -93988.5) scale(132 -240)" gradientUnits="userSpaceOnUse"><stop offset="0" stop-color="#fafafb"/><stop offset="1" stop-color="#f7f8f9"/></linearGradient><linearGradient id="linear-gradient-87" x1="901.22" y1="60.86" x2="873.58" y2="31.97" gradientUnits="userSpaceOnUse"><stop offset="0" stop-color="#d5d9dd"/><stop offset="1" stop-color="#d5d9dd"/></linearGradient><linearGradient id="linear-gradient-88" x1="-3129.32" y1="-397.46" x2="-3128.54" y2="-397.25" gradientTransform="translate(514060.29 -62303) scale(164 -157)" gradientUnits="userSpaceOnUse"><stop offset="0" stop-color="#d6dade"/><stop offset="1" stop-color="#dee1e5"/></linearGradient><linearGradient id="linear-gradient-89" x1="-3128.34" y1="-392.72" x2="-3129.24" y2="-393.07" gradientTransform="translate(514060.29 -111791) scale(164 -285)" gradientUnits="userSpaceOnUse"><stop offset="0" stop-color="#e7e9ec"/><stop offset="1" stop-color="#e3e5e9"/></linearGradient><linearGradient id="linear-gradient-90" x1="945.18" y1="898.28" x2="868.34" y2="979.85" gradientUnits="userSpaceOnUse"><stop offset="0" stop-color="#d1d6da"/><stop offset="1" stop-color="#dcdfe3"/></linearGradient><linearGradient id="linear-gradient-91" x1="-3130.03" y1="-395.19" x2="-3130.84" y2="-395.29" gradientTransform="translate(564454.73 -76926) scale(180 -197)" xlink:href="#linear-gradient-90"/><linearGradient id="linear-gradient-92" x1="-3131.12" y1="-394.52" x2="-3130.25" y2="-393.68" gradientTransform="translate(567613.01 -94308.5) scale(181 -240)" gradientUnits="userSpaceOnUse"><stop offset="0" stop-color="#eff1f3"/><stop offset="1" stop-color="#eceef0"/></linearGradient><linearGradient id="linear-gradient-93" x1="-3093.74" y1="-400.09" x2="-3094.52" y2="-400.29" gradientTransform="translate(180519.84 -45846) scale(58 -117)" gradientUnits="userSpaceOnUse"><stop offset="0" stop-color="#ccd1d6"/><stop offset="1" stop-color="#ced3d8"/></linearGradient><linearGradient id="linear-gradient-94" x1="996.4" y1="976.71" x2="1020.31" y2="998.98" gradientUnits="userSpaceOnUse"><stop offset="0" stop-color="#cacfd5"/><stop offset="1" stop-color="#ced3d8"/></linearGradient><linearGradient id="linear-gradient-95" x1="-3130.26" y1="-394.54" x2="-3130.52" y2="-395.35" gradientTransform="translate(564454.73 -80151) scale(180 -205)" gradientUnits="userSpaceOnUse"><stop offset="0" stop-color="#e6e8eb"/><stop offset="1" stop-color="#dcdfe3"/></linearGradient><linearGradient id="linear-gradient-96" x1="-3129.22" y1="-393.66" x2="-3130.2" y2="-394.02" gradientTransform="translate(539319.51 -93988.5) scale(172 -240)" gradientUnits="userSpaceOnUse"><stop offset="0" stop-color="#f2f3f5"/><stop offset="1" stop-color="#f8f9fa"/></linearGradient><linearGradient id="linear-gradient-97" x1="-3122.63" y1="-394.99" x2="-3123.46" y2="-395.05" gradientTransform="translate(394585.73 -80151) scale(126 -205)" gradientUnits="userSpaceOnUse"><stop offset="0" stop-color="#d4d8dc"/><stop offset="1" stop-color="#dbdfe3"/></linearGradient><linearGradient id="linear-gradient-98" x1="-3134.1" y1="-395.54" x2="-3133.2" y2="-394.77" gradientTransform="translate(687288.57 -80391) scale(219 -205)" gradientUnits="userSpaceOnUse"><stop offset="0" stop-color="#eff1f2"/><stop offset="1" stop-color="#eceef0"/></linearGradient><linearGradient id="linear-gradient-99" x1="-3133.09" y1="-397.19" x2="-3133.9" y2="-398.07" gradientTransform="translate(687288.57 -58600) scale(219 -149)" xlink:href="#linear-gradient-85"/><linearGradient id="linear-gradient-100" x1="-3130.12" y1="-393.52" x2="-3130.99" y2="-394.35" gradientTransform="translate(567613.01 -94228.5) scale(181 -240)" xlink:href="#linear-gradient-80"/><linearGradient id="linear-gradient-101" x1="-3128.57" y1="-393.75" x2="-3129.16" y2="-393.19" gradientTransform="translate(520435.84 -107791) scale(166 -275)" gradientUnits="userSpaceOnUse"><stop offset="0" stop-color="#f2f3f5"/><stop offset="1" stop-color="#f6f7f8"/></linearGradient><linearGradient id="linear-gradient-102" x1="-3111.3" y1="-397.96" x2="-3110.61" y2="-397.69" gradientTransform="translate(262400.06 -58360) scale(84 -149)" gradientUnits="userSpaceOnUse"><stop offset="0" stop-color="#d1d6da"/><stop offset="1" stop-color="#d0d4d9"/></linearGradient><linearGradient id="linear-gradient-103" x1="-3124.75" y1="-394.14" x2="-3123.77" y2="-394.02" gradientTransform="translate(413475.4 -93862.5) scale(132 -240)" gradientUnits="userSpaceOnUse"><stop offset="0" stop-color="#e6e8eb"/><stop offset="1" stop-color="#dde0e4"/></linearGradient><linearGradient id="linear-gradient-104" x1="-3112.58" y1="-394.52" x2="-3112.04" y2="-393.95" gradientTransform="translate(271928.89 -93862.5) scale(87 -240)" xlink:href="#linear-gradient-97"/><linearGradient id="linear-gradient-105" x1="-3128.34" y1="-392.88" x2="-3129.24" y2="-393.25" gradientTransform="translate(514273.29 -107791) scale(164 -275)" gradientUnits="userSpaceOnUse"><stop offset="0" stop-color="#fafbfb"/><stop offset="1" stop-color="#fff"/></linearGradient><linearGradient id="linear-gradient-106" x1="-3131.12" y1="-394.52" x2="-3130.25" y2="-393.71" gradientTransform="translate(567826.01 -94193.5) scale(181 -240)" gradientUnits="userSpaceOnUse"><stop offset="0" stop-color="#f2f3f5"/><stop offset="1" stop-color="#f5f6f7"/></linearGradient><linearGradient id="linear-gradient-107" x1="-3124.56" y1="-394.28" x2="-3123.87" y2="-394.12" gradientTransform="translate(410331.12 -93303) scale(131 -237)" xlink:href="#linear-gradient-47"/><linearGradient id="linear-gradient-108" x1="1090.49" y1="89.69" x2="1034.87" y2="32.32" gradientUnits="userSpaceOnUse"><stop offset="0" stop-color="#e5e7ea"/><stop offset="1" stop-color="#e6e8eb"/></linearGradient><linearGradient id="linear-gradient-109" x1="1146.24" y1="143.36" x2="1107.46" y2="105.31" gradientTransform="matrix(1, 0, 0, 1, 0, 0)" xlink:href="#linear-gradient-51"/><linearGradient id="linear-gradient-110" x1="-3129.33" y1="-393.7" x2="-3128.51" y2="-393.33" gradientTransform="translate(514273.29 -106865.5) scale(164 -272)" gradientUnits="userSpaceOnUse"><stop offset="0" stop-color="#f1f3f4"/><stop offset="1" stop-color="#f4f5f6"/></linearGradient><linearGradient id="linear-gradient-111" x1="-3133.48" y1="-404.37" x2="-3133.2" y2="-403.68" gradientTransform="translate(668570.9 -36216) scale(213 -91)" xlink:href="#linear-gradient-74"/><linearGradient id="linear-gradient-112" x1="1154.37" y1="975.02" x2="1112.6" y2="1018.26" gradientUnits="userSpaceOnUse"><stop offset="0" stop-color="#bbc2ca"/><stop offset="1" stop-color="#c4cad0"/></linearGradient><linearGradient id="linear-gradient-113" x1="-3121.97" y1="-394.35" x2="-3121.25" y2="-394.21" gradientTransform="translate(369474.51 -90135) scale(118 -231)" gradientUnits="userSpaceOnUse"><stop offset="0" stop-color="#ccd1d6"/><stop offset="1" stop-color="#c7cdd3"/></linearGradient><linearGradient id="linear-gradient-114" x1="-3132.85" y1="-394.51" x2="-3133.2" y2="-395.37" gradientTransform="translate(668570.9 -80927.5) scale(213 -206)" gradientUnits="userSpaceOnUse"><stop offset="0" stop-color="#eff1f2"/><stop offset="1" stop-color="#e7e9ec"/></linearGradient><linearGradient id="linear-gradient-115" x1="-3133.29" y1="-400.51" x2="-3133.2" y2="-401.16" gradientTransform="translate(668611.9 -43669) scale(213 -111)" gradientUnits="userSpaceOnUse"><stop offset="0" stop-color="#cfd4d9"/><stop offset="1" stop-color="#c8ced3"/></linearGradient><linearGradient id="linear-gradient-116" x1="1334.45" y1="962.61" x2="1137.43" y2="921.58" gradientUnits="userSpaceOnUse"><stop offset="0" stop-color="#bcc3ca"/><stop offset="1" stop-color="#c7cdd3"/></linearGradient><linearGradient id="linear-gradient-117" x1="-3124.01" y1="-397.88" x2="-3123.21" y2="-397.3" gradientTransform="translate(401093.28 -60220.5) scale(128 -154)" gradientUnits="userSpaceOnUse"><stop offset="0" stop-color="#bac1c9"/><stop offset="1" stop-color="#b9c0c8"/></linearGradient><linearGradient id="linear-gradient-118" x1="-3133.32" y1="-395.51" x2="-3133.2" y2="-394.7" gradientTransform="translate(668617.9 -80687.5) scale(213 -206)" gradientUnits="userSpaceOnUse"><stop offset="0" stop-color="#cfd4d9"/><stop offset="1" stop-color="#dbdfe3"/></linearGradient><linearGradient id="linear-gradient-119" x1="-3132.92" y1="-400.51" x2="-3133.2" y2="-401.16" gradientTransform="translate(668617.9 -43909) scale(213 -111)" gradientUnits="userSpaceOnUse"><stop offset="0" stop-color="#dcdfe3"/><stop offset="1" stop-color="#dbdfe3"/></linearGradient><linearGradient id="linear-gradient-120" x1="1154.62" y1="214.02" x2="1199.49" y2="124.27" gradientUnits="userSpaceOnUse"><stop offset="0" stop-color="#ebedef"/><stop offset="1" stop-color="#f6f7f8"/></linearGradient><linearGradient id="linear-gradient-121" x1="-3125.38" y1="-393.82" x2="-3124.92" y2="-393.04" gradientTransform="translate(426279.51 -106865.5) scale(136 -272)" gradientUnits="userSpaceOnUse"><stop offset="0" stop-color="#fafbfb"/><stop offset="1" stop-color="#f5f6f7"/></linearGradient><linearGradient id="linear-gradient-122" x1="1349.56" y1="974.02" x2="1319.54" y2="1006.3" gradientUnits="userSpaceOnUse"><stop offset="0" stop-color="#b0b7c0"/><stop offset="1" stop-color="#b3bac3"/></linearGradient><linearGradient id="linear-gradient-123" x1="-3093.81" y1="-397.66" x2="-3092.86" y2="-397.32" gradientTransform="translate(177642.56 -60220.5) scale(57 -154)" gradientUnits="userSpaceOnUse"><stop offset="0" stop-color="#b6bdc5"/><stop offset="1" stop-color="#b6bdc5"/></linearGradient><linearGradient id="linear-gradient-124" x1="-3133.08" y1="-398.69" x2="-3133.2" y2="-399.6" gradientTransform="translate(668698.9 -50773) scale(213 -129)" xlink:href="#linear-gradient-115"/><linearGradient id="linear-gradient-125" x1="-3132.7" y1="-398.12" x2="-3133.4" y2="-398.71" gradientTransform="translate(668698.9 -53381.5) scale(213 -136)" gradientUnits="userSpaceOnUse"><stop offset="0" stop-color="#c0c6cd"/><stop offset="1" stop-color="#c5cbd1"/></linearGradient><linearGradient id="linear-gradient-126" x1="-3133.47" y1="-404.37" x2="-3133.2" y2="-403.68" gradientTransform="translate(668702.9 -36456) scale(213 -91)" gradientUnits="userSpaceOnUse"><stop offset="0" stop-color="#eff1f2"/><stop offset="1" stop-color="#eff1f3"/></linearGradient><linearGradient id="linear-gradient-127" x1="-3133.7" y1="-395.23" x2="-3132.89" y2="-395.01" gradientTransform="translate(668702.9 -81167.5) scale(213 -206)" gradientUnits="userSpaceOnUse"><stop offset="0" stop-color="#fafbfb"/><stop offset="1" stop-color="#f0f2f4"/></linearGradient><linearGradient id="linear-gradient-128" x1="-3133.55" y1="-395.51" x2="-3133.2" y2="-394.7" gradientTransform="translate(668751.9 -80927.5) scale(213 -206)" gradientUnits="userSpaceOnUse"><stop offset="0" stop-color="#dcdfe3"/><stop offset="1" stop-color="#e4e6ea"/></linearGradient><linearGradient id="linear-gradient-129" x1="-3132.93" y1="-400.51" x2="-3133.2" y2="-401.16" gradientTransform="translate(668751.9 -44149) scale(213 -111)" gradientUnits="userSpaceOnUse"><stop offset="0" stop-color="#e5e7ea"/><stop offset="1" stop-color="#e4e6ea"/></linearGradient><linearGradient id="linear-gradient-130" x1="-3128.62" y1="-397.88" x2="-3128.6" y2="-397.22" gradientTransform="translate(508262.73 -60220.5) scale(162 -154)" gradientUnits="userSpaceOnUse"><stop offset="0" stop-color="#a9b2bb"/><stop offset="1" stop-color="#b2b9c2"/></linearGradient><linearGradient id="linear-gradient-131" x1="1407.77" y1="938.41" x2="1371.63" y2="976.5" gradientUnits="userSpaceOnUse"><stop offset="0" stop-color="#aab2bc"/><stop offset="1" stop-color="#b3bac3"/></linearGradient><linearGradient id="linear-gradient-132" x1="-3132.85" y1="-398.69" x2="-3133.2" y2="-399.6" gradientTransform="translate(668783.9 -51013) scale(213 -129)" gradientUnits="userSpaceOnUse"><stop offset="0" stop-color="#d8dce0"/><stop offset="1" stop-color="#d5d9dd"/></linearGradient><linearGradient id="linear-gradient-133" x1="-3133.48" y1="-399.12" x2="-3133.2" y2="-398.21" gradientTransform="translate(668783.9 -53621.5) scale(213 -136)" gradientUnits="userSpaceOnUse"><stop offset="0" stop-color="#cfd4d9"/><stop offset="1" stop-color="#d5d9dd"/></linearGradient><linearGradient id="linear-gradient-134" x1="-3132.7" y1="-401.39" x2="-3133.32" y2="-401.89" gradientTransform="translate(668824.9 -40845.5) scale(213 -104)" gradientUnits="userSpaceOnUse"><stop offset="0" stop-color="#abb4bd"/><stop offset="1" stop-color="#b2b9c2"/></linearGradient><linearGradient id="linear-gradient-135" x1="-3133.7" y1="-399.12" x2="-3132.99" y2="-398.62" gradientTransform="translate(668824.9 -53381.5) scale(213 -136)" gradientUnits="userSpaceOnUse"><stop offset="0" stop-color="#bcc3ca"/><stop offset="1" stop-color="#b6bdc5"/></linearGradient><linearGradient id="linear-gradient-136" x1="-3133.32" y1="-402.39" x2="-3133.2" y2="-401.39" gradientTransform="translate(668830.9 -41085.5) scale(213 -104)" gradientUnits="userSpaceOnUse"><stop offset="0" stop-color="#c0c6cd"/><stop offset="1" stop-color="#c6ccd2"/></linearGradient><linearGradient id="linear-gradient-137" x1="-3133.31" y1="-395.51" x2="-3133.2" y2="-394.69" gradientTransform="translate(668832.9 -81167.5) scale(213 -206)" gradientUnits="userSpaceOnUse"><stop offset="0" stop-color="#e5e7ea"/><stop offset="1" stop-color="#f0f2f4"/></linearGradient><linearGradient id="linear-gradient-138" x1="-3132.92" y1="-398.12" x2="-3133.2" y2="-399.12" gradientTransform="translate(668830.9 -53621.5) scale(213 -136)" gradientUnits="userSpaceOnUse"><stop offset="0" stop-color="#cdd2d7"/><stop offset="1" stop-color="#c6ccd2"/></linearGradient><linearGradient id="linear-gradient-139" x1="-3133.12" y1="-394.72" x2="-3133.2" y2="-395.53" gradientTransform="translate(668832.9 -78965.5) scale(213 -200)" gradientUnits="userSpaceOnUse"><stop offset="0" stop-color="#fcfdfd"/><stop offset="1" stop-color="#f0f2f4"/></linearGradient><linearGradient id="linear-gradient-140" x1="1424.99" y1="77.56" x2="1362.39" y2="12.84" gradientUnits="userSpaceOnUse"><stop offset="0" stop-color="#fcfdfd"/><stop offset="1" stop-color="#fcfdfd"/></linearGradient><linearGradient id="linear-gradient-141" x1="-3133.09" y1="-398.69" x2="-3133.2" y2="-399.6" gradientTransform="translate(668915.9 -51253) scale(213 -129)" gradientUnits="userSpaceOnUse"><stop offset="0" stop-color="#e5e7ea"/><stop offset="1" stop-color="#dde0e4"/></linearGradient><linearGradient id="linear-gradient-142" x1="-3133.47" y1="-399.12" x2="-3133.2" y2="-398.21" gradientTransform="translate(668915.9 -53861.5) scale(213 -136)" gradientUnits="userSpaceOnUse"><stop offset="0" stop-color="#d8dce0"/><stop offset="1" stop-color="#dde0e4"/></linearGradient><linearGradient id="linear-gradient-143" x1="-3106.32" y1="-397.49" x2="-3105.47" y2="-397.31" gradientTransform="translate(231376.28 -60220.5) scale(74 -154)" gradientUnits="userSpaceOnUse"><stop offset="0" stop-color="#a7b0b9"/><stop offset="1" stop-color="#a4adb7"/></linearGradient><linearGradient id="linear-gradient-144" x1="1557.95" y1="978.84" x2="1521.63" y2="1017.24" gradientUnits="userSpaceOnUse"><stop offset="0" stop-color="#9da7b2"/><stop offset="1" stop-color="#a2abb5"/></linearGradient><linearGradient id="linear-gradient-145" x1="-3123.75" y1="-393.52" x2="-3124.27" y2="-394.23" gradientTransform="translate(413901.4 -93785.5) scale(132 -240)" gradientUnits="userSpaceOnUse"><stop offset="0" stop-color="#bec5cc"/><stop offset="1" stop-color="#b6bdc5"/></linearGradient><linearGradient id="linear-gradient-146" x1="-3133.55" y1="-402.38" x2="-3133.2" y2="-401.38" gradientTransform="translate(668964.9 -41325.5) scale(213 -104)" gradientUnits="userSpaceOnUse"><stop offset="0" stop-color="#cdd2d7"/><stop offset="1" stop-color="#cfd4d9"/></linearGradient><linearGradient id="linear-gradient-147" x1="-3132.93" y1="-398.12" x2="-3133.2" y2="-399.12" gradientTransform="translate(668964.9 -53861.5) scale(213 -136)" gradientUnits="userSpaceOnUse"><stop offset="0" stop-color="#d6dade"/><stop offset="1" stop-color="#cfd4d9"/></linearGradient><linearGradient id="linear-gradient-148" x1="-3111.58" y1="-393.56" x2="-3112.54" y2="-394.02" gradientTransform="translate(272354.89 -93785.5) scale(87 -240)" gradientUnits="userSpaceOnUse"><stop offset="0" stop-color="#b7bec6"/><stop offset="1" stop-color="#b5bcc4"/></linearGradient><linearGradient id="linear-gradient-149" x1="-3123.65" y1="-398.4" x2="-3123.51" y2="-397.96" gradientTransform="translate(401393.28 -57109) scale(128 -145)" gradientUnits="userSpaceOnUse"><stop offset="0" stop-color="#bec5cc"/><stop offset="1" stop-color="#c2c8ce"/></linearGradient><linearGradient id="linear-gradient-150" x1="-3128.12" y1="-396.9" x2="-3128.88" y2="-397.35" gradientTransform="translate(508475.73 -60220.5) scale(162 -154)" xlink:href="#linear-gradient-144"/><linearGradient id="linear-gradient-151" x1="1620.05" y1="939.64" x2="1587.83" y2="973.58" gradientUnits="userSpaceOnUse"><stop offset="0" stop-color="#98a2ae"/><stop offset="1" stop-color="#a2abb5"/></linearGradient><linearGradient id="linear-gradient-152" x1="-3132.7" y1="-404.29" x2="-3133.32" y2="-405.24" gradientTransform="translate(669037.9 -33947.5) scale(213 -86)" gradientUnits="userSpaceOnUse"><stop offset="0" stop-color="#a0aab4"/><stop offset="1" stop-color="#a4adb7"/></linearGradient><linearGradient id="linear-gradient-153" x1="-3133.7" y1="-394.75" x2="-3132.99" y2="-394.09" gradientTransform="translate(669037.9 -90289) scale(213 -231)" gradientUnits="userSpaceOnUse"><stop offset="0" stop-color="#abb4bd"/><stop offset="1" stop-color="#abb4bd"/></linearGradient><linearGradient id="linear-gradient-154" x1="-3130.12" y1="-393.3" x2="-3130.76" y2="-394.01" gradientTransform="translate(568252.01 -97513) scale(181 -249)" gradientUnits="userSpaceOnUse"><stop offset="0" stop-color="#c6ccd2"/><stop offset="1" stop-color="#c2c8ce"/></linearGradient><linearGradient id="linear-gradient-155" x1="-3133.31" y1="-402.38" x2="-3133.2" y2="-401.38" gradientTransform="translate(669045.9 -41565.5) scale(213 -104)" gradientUnits="userSpaceOnUse"><stop offset="0" stop-color="#d6dade"/><stop offset="1" stop-color="#dcdfe3"/></linearGradient><linearGradient id="linear-gradient-156" x1="-3124.75" y1="-394.3" x2="-3124.05" y2="-393.63" gradientTransform="translate(414114.4 -97513) scale(132 -249)" gradientUnits="userSpaceOnUse"><stop offset="0" stop-color="#b7bec6"/><stop offset="1" stop-color="#bcc3ca"/></linearGradient><linearGradient id="linear-gradient-157" x1="-3108.56" y1="-396.41" x2="-3108.46" y2="-396.86" gradientTransform="translate(247308.67 -64188) scale(79 -163)" gradientUnits="userSpaceOnUse"><stop offset="0" stop-color="#c3c9d0"/><stop offset="1" stop-color="#bcc3ca"/></linearGradient><linearGradient id="linear-gradient-158" x1="-3133.68" y1="-395.74" x2="-3132.93" y2="-395.24" gradientTransform="translate(669045.9 -78965.5) scale(213 -200)" gradientUnits="userSpaceOnUse"><stop offset="0" stop-color="#e5e7ea"/><stop offset="1" stop-color="#e0e3e7"/></linearGradient><linearGradient id="linear-gradient-159" x1="1652.44" y1="126.59" x2="1581.86" y2="53.27" gradientUnits="userSpaceOnUse"><stop offset="0" stop-color="#eceef0"/><stop offset="1" stop-color="#e9ebed"/></linearGradient><linearGradient id="linear-gradient-160" x1="-3109.33" y1="-398.4" x2="-3109.43" y2="-397.96" gradientTransform="translate(253556.23 -57349) scale(81 -145)" gradientUnits="userSpaceOnUse"><stop offset="0" stop-color="#c6ccd2"/><stop offset="1" stop-color="#ccd1d7"/></linearGradient><linearGradient id="linear-gradient-161" x1="1782.52" y1="936.57" x2="1728.53" y2="994.1" gradientUnits="userSpaceOnUse"><stop offset="0" stop-color="#8d98a5"/><stop offset="1" stop-color="#95a0ac"/></linearGradient><linearGradient id="linear-gradient-162" x1="1704.72" y1="138.8" x2="1741.35" y2="77.75" gradientUnits="userSpaceOnUse"><stop offset="0" stop-color="#e5e7ea"/><stop offset="1" stop-color="#dcdfe3"/></linearGradient><linearGradient id="linear-gradient-163" x1="1762.87" y1="6.57" x2="1839.92" y2="144.16" gradientUnits="userSpaceOnUse"><stop offset="0" stop-color="#d4d8dc"/><stop offset="1" stop-color="#dcdfe3"/></linearGradient><linearGradient id="linear-gradient-164" x1="1877.4" y1="193.12" x2="1820.64" y2="155.98" gradientTransform="matrix(1, 0, 0, 1, 0, 0)" xlink:href="#linear-gradient-93"/><linearGradient id="linear-gradient-165" x1="1842.6" y1="178.64" x2="1824.91" y2="195.68" gradientUnits="userSpaceOnUse"><stop offset="0" stop-color="#c3c9d0"/><stop offset="1" stop-color="#cbd1d6"/></linearGradient><linearGradient id="linear-gradient-166" x1="-3133.78" y1="-400.62" x2="-3133.87" y2="-401.59" gradientTransform="translate(697463.4 -43890.5) scale(222 -110)" gradientUnits="userSpaceOnUse"><stop offset="0" stop-color="#d4d8dc"/><stop offset="1" stop-color="#ccd1d7"/></linearGradient><linearGradient id="linear-gradient-167" x1="1817.66" y1="231.52" x2="1760.1" y2="282.31" gradientUnits="userSpaceOnUse"><stop offset="0" stop-color="#c1c7ce"/><stop offset="1" stop-color="#cbd0d5"/></linearGradient><linearGradient id="linear-gradient-168" x1="-3133.99" y1="-398.45" x2="-3133.85" y2="-397.56" gradientTransform="translate(697463.4 -57349) scale(222 -145)" gradientUnits="userSpaceOnUse"><stop offset="0" stop-color="#c3c9d0"/><stop offset="1" stop-color="#cbd0d5"/></linearGradient><linearGradient id="linear-gradient-169" x1="1897.76" y1="345.66" x2="1834.51" y2="405.14" gradientUnits="userSpaceOnUse"><stop offset="0" stop-color="#b3bac3"/><stop offset="1" stop-color="#bbc2c9"/></linearGradient><linearGradient id="linear-gradient-170" x1="-3126.02" y1="-397.85" x2="-3125.85" y2="-397.07" gradientTransform="translate(442533.9 -60691.5) scale(141 -154)" xlink:href="#linear-gradient-169"/><linearGradient id="linear-gradient-171" x1="1905.03" y1="517.02" x2="1854.55" y2="568.4" gradientUnits="userSpaceOnUse"><stop offset="0" stop-color="#a2abb6"/><stop offset="1" stop-color="#abb3bc"/></linearGradient><linearGradient id="linear-gradient-172" x1="-3134.03" y1="-400.27" x2="-3134.12" y2="-401.15" gradientTransform="translate(710052.51 -44650) scale(226 -113)" gradientUnits="userSpaceOnUse"><stop offset="0" stop-color="#b3bac3"/><stop offset="1" stop-color="#adb5be"/></linearGradient><linearGradient id="linear-gradient-173" x1="1799.26" y1="623.83" x2="1751.1" y2="674.46" gradientUnits="userSpaceOnUse"><stop offset="0" stop-color="#a1abb5"/><stop offset="1" stop-color="#acb4be"/></linearGradient><linearGradient id="linear-gradient-174" x1="-3133.53" y1="-397.13" x2="-3134.26" y2="-397.38" gradientTransform="translate(710052.51 -60451.5) scale(226 -154)" gradientUnits="userSpaceOnUse"><stop offset="0" stop-color="#a1abb5"/><stop offset="1" stop-color="#abb4bd"/></linearGradient><linearGradient id="linear-gradient-175" x1="1905.52" y1="737.63" x2="1851.69" y2="792.93" gradientUnits="userSpaceOnUse"><stop offset="0" stop-color="#929da9"/><stop offset="1" stop-color="#99a3af"/></linearGradient><linearGradient id="linear-gradient-176" x1="-3127.75" y1="-405.24" x2="-3127.08" y2="-404.67" gradientTransform="translate(474006.67 -33947.5) scale(151 -86)" gradientUnits="userSpaceOnUse"><stop offset="0" stop-color="#9da7b2"/><stop offset="1" stop-color="#99a3af"/></linearGradient><linearGradient id="linear-gradient-177" x1="1842.7" y1="864.84" x2="1802.27" y2="906.64" xlink:href="#linear-gradient-161"/><linearGradient id="linear-gradient-178" x1="-3127.39" y1="-398.45" x2="-3127.32" y2="-397.66" gradientTransform="translate(474006.67 -56724) scale(151 -145)" xlink:href="#linear-gradient-161"/><linearGradient id="linear-gradient-179" x1="1422.72" y1="632.57" x2="2012.21" y2="1202.42" gradientUnits="userSpaceOnUse"><stop offset="0" stop-color="#8a96a3"/><stop offset="1" stop-color="#8a96a3"/></linearGradient></defs><polygon class="cls-1" points="0 181.62 0 212.63 28.72 181.19 0 181.62"/><polygon class="cls-86" points="69.72 570.55 0 591.23 0 642.24 18.72 661.63 69.72 570.55"/><polygon class="cls-84" points="0 220.96 0 294.43 75.72 330.33 0 220.96"/><polygon class="cls-85" points="28.72 181.19 0 212.63 0 220.96 75.72 330.33 28.72 181.19"/><polygon class="cls-89" points="0 139.57 0 140.43 0 141.28 0 142.14 0 143 0 143.86 0 144.72 0 145.58 0 146.43 0 147.29 0 148.15 0 149.01 0 149.87 0 150.72 0 151.58 0 152.44 0 153.3 0 154.16 0 155.02 0 155.87 0 156.73 0 157.59 0 158.45 0 159.31 0 160.16 0 161.02 0 161.88 0 162.74 0 163.6 0 164.46 0 165.31 0 166.17 0 167.03 0 167.89 0 168.75 0 169.6 0 170.46 0 171.32 0 172.18 0 173.04 0 173.9 0 174.75 0 175.61 0 176.47 0 177.33 0 178.19 0 179.04 0 179.9 0 180.76 0 181.62 28.72 181.19 0 139.57"/><polygon class="cls-87" points="45.32 0 43.74 0 43.31 0 41.74 0 41.3 0 39.74 0 39.3 0 37.74 0 37.29 0 35.74 0 35.28 0 33.74 0 33.27 0 31.74 0 31.26 0 29.74 0 29.24 0 27.74 0 27.23 0 25.74 0 25.22 0 23.74 0 23.21 0 21.74 0 20.28 0 18.82 0 17.35 0 14.52 0 13.13 0 11.74 0 11.12 0 9.74 0 8.37 0 7 0 5.63 0 1.47 0 .23 0 0 0 0 .21 0 1.33 0 6.16 0 7.43 0 8.63 0 9.75 0 10.82 0 11.75 0 12.79 0 13.77 0 18.74 0 19.8 0 20.81 0 21.76 0 22.68 0 23.77 0 24.66 0 25.77 0 26.64 0 27.77 0 28.62 0 29.77 0 30.6 0 31.77 0 32.59 0 33.78 0 34.57 0 35.78 0 36.56 0 37.78 0 38.55 0 39.78 0 40.53 0 41.78 0 42.52 0 43.78 0 44.51 0 45.79 45.74 0 45.32 0"/><polygon class="cls-88" points="63.5 0 45.74 0 0 45.79 0 139.57 28.72 181.19 63.5 0"/><polygon class="cls-82" points="75.72 330.33 0 406.12 0 428.71 156.72 364.36 75.72 330.33"/><polygon class="cls-83" points="0 294.43 0 295.76 0 297.09 0 298.42 0 299.74 0 301.07 0 302.4 0 303.73 0 305.06 0 306.39 0 307.72 0 309.05 0 310.38 0 311.71 0 313.04 0 314.37 0 315.7 0 317.03 0 318.36 0 319.69 0 321.02 0 322.35 0 323.68 0 325.01 0 326.34 0 327.67 0 329 0 330.33 0 331.66 0 332.99 0 334.32 0 335.65 0 336.98 0 338.31 0 339.64 0 340.97 0 342.29 0 343.62 0 344.95 0 346.28 0 347.61 0 348.94 0 350.27 0 351.6 0 352.93 0 354.26 0 355.59 0 356.92 0 358.25 0 359.58 0 360.91 0 362.24 0 363.57 0 364.9 0 366.23 0 367.56 0 368.89 0 370.22 0 371.55 0 372.88 0 374.21 0 375.54 0 376.87 0 378.2 0 379.53 0 380.86 0 382.19 0 383.52 0 384.84 0 386.17 0 387.5 0 388.83 0 390.16 0 391.49 0 392.82 0 394.15 0 395.48 0 396.81 0 398.14 0 399.47 0 400.8 0 402.13 0 403.46 0 404.79 0 406.12 75.72 330.33 0 294.43"/><polygon class="cls-162" points="0 428.71 0 430.32 156.72 364.36 0 428.71"/><polygon class="cls-163" points="0 430.32 0 431.93 156.72 364.36 0 430.32"/><polygon class="cls-161" points="0 431.93 0 433.54 156.72 364.36 0 431.93"/><polygon class="cls-160" points="0 433.54 0 435.15 156.72 364.36 0 433.54"/><polygon class="cls-150" points="156.72 364.36 0 435.15 0 494.3 69.72 570.55 156.72 364.36"/><polygon class="cls-156" points="0 494.3 0 495.59 0 496.89 0 498.18 0 499.47 0 500.76 0 502.06 0 503.35 0 504.64 0 505.93 0 507.22 0 508.52 0 509.81 0 511.1 0 512.39 0 513.69 0 514.98 0 516.27 0 517.56 0 518.86 0 520.15 0 521.44 0 522.73 0 524.03 0 525.32 0 526.61 0 527.9 0 529.19 0 530.49 0 531.78 0 533.07 0 534.36 0 535.66 0 536.95 0 538.24 0 539.53 0 540.83 0 542.12 0 543.41 0 544.7 0 546 0 547.29 0 548.58 0 549.87 0 551.16 0 552.46 0 553.75 0 555.04 0 556.33 0 557.63 0 558.92 0 560.21 0 561.5 0 562.8 0 564.09 0 565.38 0 566.67 0 567.97 0 569.26 0 570.55 0 571.84 0 573.13 0 574.43 0 575.72 0 577.01 0 578.3 0 579.6 0 580.89 0 582.18 0 583.47 0 584.77 0 586.06 0 587.35 0 588.64 0 589.94 0 591.23 69.72 570.55 0 494.3"/><polygon class="cls-158" points="0 642.24 0 642.89 0 643.55 0 644.21 0 644.87 0 645.52 0 646.18 0 646.84 0 647.5 0 648.16 0 648.81 0 649.47 0 650.13 0 650.79 0 651.44 0 652.1 0 652.76 0 653.42 0 654.07 0 654.73 0 655.39 0 656.05 0 656.7 0 657.36 0 658.02 0 658.68 0 659.33 0 659.99 0 660.65 0 661.31 0 661.96 0 662.62 0 663.28 0 663.94 0 664.59 0 665.25 0 665.91 0 666.57 0 667.22 0 667.88 0 668.54 0 669.2 0 669.85 0 670.51 0 671.17 0 671.83 0 672.48 0 673.14 0 673.8 0 674.46 0 675.11 0 675.77 0 676.43 0 677.09 0 677.74 0 678.4 0 679.06 0 679.72 0 680.37 0 681.03 0 681.69 0 682.35 0 683 0 683.66 0 684.32 0 684.98 0 685.63 0 686.29 0 686.95 0 687.61 0 688.26 0 688.92 0 689.58 0 690.24 0 690.89 0 691.55 0 692.21 0 692.87 0 693.52 0 694.18 0 694.84 0 695.5 18.72 661.63 0 642.24"/><polygon class="cls-159" points="18.72 661.63 0 695.5 0 772.17 198.72 810.77 18.72 661.63"/><polygon class="cls-151" points="0 772.17 0 773.84 0 775.52 0 777.2 0 778.88 0 780.56 0 782.24 0 783.92 0 785.59 0 787.27 0 788.95 0 790.63 0 792.31 0 793.99 0 795.67 0 797.34 0 799.02 0 800.7 0 802.38 0 804.06 0 805.74 0 807.42 0 809.09 0 810.77 0 812.45 0 814.13 0 815.81 0 817.49 0 819.17 0 820.84 0 822.52 0 824.2 0 825.88 0 827.56 0 829.24 0 830.91 0 832.59 0 834.27 0 835.95 0 837.63 0 839.31 0 840.99 0 842.66 0 844.34 0 846.02 0 847.7 0 849.38 0 851.06 0 852.74 0 854.41 198.72 810.77 0 772.17"/><polygon class="cls-157" points="88.47 0 86.68 0 84.9 0 83.12 0 81.33 0 79.55 0 77.77 0 75.98 0 74.2 0 72.42 0 70.63 0 68.85 0 67.07 0 65.28 0 63.5 0 28.72 181.19 90.25 0 88.47 0"/><polygon class="cls-153" points="0 854.41 0 928.44 198.72 810.77 0 854.41"/><polygon class="cls-154" points="69.72 570.55 18.72 661.63 231.72 604.58 69.72 570.55"/><polygon class="cls-152" points="0 949.45 0 949.64 0 949.84 0 950.05 0 950.26 0 950.48 0 950.7 0 950.94 0 951.18 0 951.43 0 951.69 0 951.96 0 952.24 0 952.53 0 952.83 0 953.14 0 953.47 0 953.81 0 954.16 0 954.52 0 954.91 0 955.31 0 955.73 0 956.17 0 956.62 0 957.11 0 957.61 0 958.14 0 958.7 0 959.29 0 959.91 0 960.57 0 961.27 0 962.01 0 962.79 0 963.63 0 964.52 0 965.47 0 966.49 0 967.59 0 968.77 0 970.04 0 971.43 0 972.93 0 974.57 0 976.36 0 1025.25 0 1026.09 0 1027.25 0 1028.06 0 1029.25 0 1030.02 0 1031.25 0 1031.98 0 1033 1.05 1033 1.74 1033 3.08 1033 3.74 1033 5.1 1033 5.74 1033 7.12 1033 7.74 1033 20.49 1033 22.14 1033 23.8 1033 25.46 1033 27.11 1033 28.77 1033 30.42 1033 32.08 1033 33.73 1033 35.39 1033 37.04 1033 38.7 1033 40.36 1033 42.01 1033 43.67 1033 45.32 1033 46.98 1033 48.63 1033 50.29 1033 51.94 1033 53.6 1033 55.26 1033 56.91 1033 58.57 1033 60.22 1033 61.88 1033 63.53 1033 65.19 1033 66.84 1033 68.5 1033 70.16 1033 71.81 1033 73.47 1033 75.12 1033 76.78 1033 78.43 1033 80.09 1033 81.74 1033 83.4 1033 85.05 1033 86.71 1033 88.37 1033 90.02 1033 91.68 1033 93.33 1033 94.99 1033 0 949.45"/><polygon class="cls-155" points="0 928.44 0 949.45 94.99 1033 124.41 1033 198.72 810.77 0 928.44"/><polygon class="cls-165" points="209.72 90.11 28.72 181.19 241.72 124.14 209.72 90.11"/><polygon class="cls-173" points="18.72 661.63 198.72 810.77 231.72 604.58 18.72 661.63"/><polygon class="cls-166" points="156.72 364.36 69.72 570.55 282.72 493.48 156.72 364.36"/><polygon class="cls-164" points="282.72 493.48 69.72 570.55 231.72 604.58 282.72 493.48"/><polygon class="cls-174" points="28.72 181.19 75.72 330.33 241.72 124.14 28.72 181.19"/><polygon class="cls-175" points="75.72 330.33 156.72 364.36 288.72 253.26 75.72 330.33"/><polygon class="cls-177" points="241.72 124.14 75.72 330.33 288.72 253.26 241.72 124.14"/><polygon class="cls-179" points="264.38 0 262.77 0 261.16 0 259.56 0 257.95 0 256.34 0 254.73 0 253.13 0 251.52 0 249.91 0 248.3 0 246.7 0 245.09 0 243.48 0 241.87 0 240.27 0 238.66 0 237.05 0 235.44 0 233.84 0 232.23 0 230.62 0 229.01 0 227.41 0 225.8 0 224.19 0 222.58 0 220.97 0 219.37 0 217.76 0 216.15 0 214.54 0 212.94 0 211.33 0 209.72 0 208.11 0 206.51 0 204.9 0 203.29 0 201.68 0 200.08 0 198.47 0 196.86 0 195.25 0 193.65 0 192.04 0 190.43 0 188.82 0 187.22 0 185.61 0 184 0 182.39 0 180.79 0 179.18 0 177.57 0 175.96 0 174.36 0 172.75 0 171.14 0 169.53 0 167.93 0 166.32 0 164.71 0 163.1 0 161.5 0 159.89 0 158.28 0 156.67 0 155.07 0 153.46 0 151.85 0 150.24 0 148.64 0 147.03 0 145.42 0 143.81 0 142.21 0 140.6 0 138.99 0 137.38 0 135.78 0 134.17 0 132.56 0 130.95 0 129.35 0 127.74 0 126.13 0 124.52 0 122.92 0 121.31 0 119.7 0 90.25 0 28.72 181.19 209.72 90.11 265.99 0 264.38 0"/><polygon class="cls-178" points="241.72 124.14 274 0 265.99 0 209.72 90.11 241.72 124.14"/><polygon class="cls-176" points="369.72 389.38 156.72 364.36 282.72 493.48 369.72 389.38"/><polygon class="cls-170" points="288.72 253.26 156.72 364.36 369.72 389.38 288.72 253.26"/><polygon class="cls-168" points="198.72 810.77 411.72 733.7 231.72 604.58 198.72 810.77"/><polygon class="cls-172" points="231.72 604.58 411.72 733.7 444.72 629.6 231.72 604.58"/><polygon class="cls-169" points="422.72 13.03 393.33 0 328.37 0 241.72 124.14 422.72 13.03"/><polygon class="cls-167" points="326.67 0 324.97 0 323.27 0 321.57 0 319.87 0 318.17 0 316.48 0 314.78 0 313.08 0 311.38 0 309.68 0 307.98 0 306.28 0 304.58 0 302.88 0 301.18 0 299.49 0 297.79 0 296.09 0 294.39 0 292.69 0 290.99 0 289.29 0 287.59 0 285.89 0 284.2 0 282.5 0 280.8 0 279.1 0 277.4 0 275.7 0 274 0 241.72 124.14 328.37 0 326.67 0"/><polygon class="cls-171" points="231.72 604.58 444.72 629.6 282.72 493.48 231.72 604.58"/><polygon class="cls-141" points="454.72 149.16 241.72 124.14 288.72 253.26 454.72 149.16"/><polygon class="cls-140" points="422.72 13.03 241.72 124.14 454.72 149.16 422.72 13.03"/><polygon class="cls-143" points="369.72 389.38 282.72 493.48 495.72 493.48 369.72 389.38"/><polygon class="cls-142" points="501.72 253.26 454.72 149.16 288.72 253.26 501.72 253.26"/><polygon class="cls-146" points="282.72 493.48 444.72 629.6 495.72 493.48 282.72 493.48"/><polygon class="cls-144" points="288.72 253.26 369.72 389.38 501.72 253.26 288.72 253.26"/><polygon class="cls-145" points="198.72 810.77 124.41 1033 126.24 1033 128.08 1033 129.91 1033 131.75 1033 133.58 1033 135.42 1033 137.25 1033 139.09 1033 140.92 1033 142.76 1033 144.59 1033 146.43 1033 148.26 1033 150.1 1033 151.93 1033 153.77 1033 155.6 1033 157.44 1033 159.27 1033 161.11 1033 162.94 1033 164.78 1033 166.61 1033 168.45 1033 170.28 1033 172.12 1033 173.95 1033 175.79 1033 177.62 1033 179.46 1033 181.29 1033 183.13 1033 184.96 1033 186.8 1033 188.63 1033 190.47 1033 192.3 1033 194.14 1033 195.97 1033 197.8 1033 199.64 1033 201.47 1033 203.31 1033 205.14 1033 206.98 1033 208.81 1033 210.65 1033 212.48 1033 214.32 1033 216.15 1033 217.99 1033 219.82 1033 221.66 1033 223.49 1033 225.33 1033 227.16 1033 229 1033 230.83 1033 232.67 1033 234.5 1033 236.34 1033 238.17 1033 240.01 1033 241.84 1033 243.68 1033 245.51 1033 247.35 1033 249.18 1033 251.02 1033 252.85 1033 254.69 1033 256.52 1033 258.36 1033 260.19 1033 262.03 1033 263.86 1033 265.7 1033 267.53 1033 269.37 1033 271.2 1033 273.04 1033 274.87 1033 276.71 1033 278.54 1033 280.37 1033 282.21 1033 284.04 1033 285.88 1033 287.71 1033 289.55 1033 291.38 1033 293.22 1033 295.05 1033 296.89 1033 298.72 1033 300.56 1033 302.39 1033 304.23 1033 306.06 1033 307.9 1033 309.73 1033 311.57 1033 313.4 1033 315.24 1033 317.07 1033 318.91 1033 320.74 1033 322.58 1033 324.41 1033 326.25 1033 328.08 1033 329.92 1033 331.75 1033 333.59 1033 198.72 810.77"/><polygon class="cls-148" points="198.72 810.77 333.59 1033 349.86 1033 411.72 733.7 198.72 810.77"/><polygon class="cls-149" points="448.39 0 447.65 0 446.91 0 446.16 0 445.42 0 444.67 0 443.93 0 443.19 0 442.44 0 441.7 0 440.95 0 440.21 0 439.46 0 438.72 0 437.98 0 437.23 0 436.49 0 435.74 0 435 0 434.26 0 433.51 0 432.77 0 432.02 0 431.28 0 430.54 0 429.79 0 429.05 0 428.3 0 427.56 0 426.81 0 426.07 0 425.33 0 424.58 0 423.84 0 423.09 0 422.35 0 421.61 0 420.86 0 420.12 0 419.37 0 418.63 0 417.89 0 417.14 0 416.4 0 415.65 0 414.91 0 414.17 0 413.42 0 412.68 0 411.93 0 411.19 0 410.44 0 409.7 0 408.96 0 408.21 0 407.47 0 406.72 0 405.98 0 405.24 0 404.49 0 403.75 0 403 0 402.26 0 401.52 0 400.77 0 400.03 0 399.28 0 398.54 0 397.79 0 397.05 0 396.31 0 395.56 0 394.82 0 394.07 0 393.33 0 422.72 13.03 449.14 0 448.39 0"/><polygon class="cls-147" points="454.72 149.16 488.71 0 449.14 0 422.72 13.03 454.72 149.16"/><polygon class="cls-99" points="501.72 253.26 369.72 389.38 495.72 493.48 501.72 253.26"/><polygon class="cls-97" points="411.72 733.7 624.72 733.7 444.72 629.6 411.72 733.7"/><polygon class="cls-98" points="495.72 493.48 582.72 484.47 501.72 253.26 495.72 493.48"/><polygon class="cls-95" points="444.72 629.6 582.72 484.47 495.72 493.48 444.72 629.6"/><polygon class="cls-96" points="635.72 13.03 605.21 0 541 0 454.72 149.16 635.72 13.03"/><polygon class="cls-93" points="539.25 0 537.51 0 535.77 0 534.03 0 532.28 0 530.54 0 528.8 0 527.05 0 525.31 0 523.57 0 521.83 0 520.08 0 518.34 0 516.6 0 514.85 0 513.11 0 511.37 0 509.62 0 507.88 0 506.14 0 504.4 0 502.65 0 500.91 0 499.17 0 497.42 0 495.68 0 493.94 0 492.2 0 490.45 0 488.71 0 454.72 149.16 541 0 539.25 0"/><polygon class="cls-94" points="411.72 733.7 349.86 1033 351.73 1033 353.6 1033 355.48 1033 357.35 1033 359.23 1033 361.1 1033 362.98 1033 364.85 1033 366.73 1033 368.6 1033 370.48 1033 372.35 1033 374.23 1033 376.1 1033 377.98 1033 379.85 1033 381.73 1033 383.6 1033 385.48 1033 387.35 1033 389.23 1033 391.1 1033 392.97 1033 394.85 1033 396.72 1033 398.6 1033 400.47 1033 402.35 1033 404.22 1033 406.1 1033 407.97 1033 409.85 1033 411.72 1033 413.6 1033 415.47 1033 417.35 1033 419.22 1033 421.1 1033 422.97 1033 424.85 1033 426.72 1033 428.59 1033 430.47 1033 432.34 1033 434.22 1033 436.09 1033 437.97 1033 439.84 1033 441.72 1033 443.59 1033 445.47 1033 447.34 1033 449.22 1033 451.09 1033 452.97 1033 454.84 1033 456.72 1033 458.59 1033 460.47 1033 462.34 1033 464.22 1033 466.09 1033 467.96 1033 469.84 1033 471.71 1033 473.59 1033 475.46 1033 477.34 1033 479.21 1033 481.09 1033 482.96 1033 484.84 1033 486.71 1033 488.59 1033 490.46 1033 492.34 1033 494.21 1033 496.09 1033 497.96 1033 499.84 1033 501.71 1033 503.58 1033 505.46 1033 507.33 1033 509.21 1033 511.08 1033 411.72 733.7"/><polygon class="cls-91" points="411.72 733.7 511.08 1033 524.42 1033 624.72 733.7 411.72 733.7"/><polygon class="cls-92" points="444.72 629.6 624.72 733.7 582.72 484.47 444.72 629.6"/><polygon class="cls-90" points="667.72 244.25 454.72 149.16 501.72 253.26 667.72 244.25"/><polygon class="cls-117" points="667.72 244.25 501.72 253.26 714.72 330.33 667.72 244.25"/><polygon class="cls-119" points="582.72 484.47 624.72 733.7 708.72 570.55 582.72 484.47"/><polygon class="cls-118" points="501.72 253.26 582.72 484.47 714.72 330.33 501.72 253.26"/><polygon class="cls-114" points="635.72 13.03 454.72 149.16 667.72 244.25 635.72 13.03"/><polygon class="cls-113" points="624.72 733.7 657.72 724.69 708.72 570.55 624.72 733.7"/><polygon class="cls-116" points="708.72 570.55 657.72 724.69 795.72 615.59 708.72 570.55"/><polygon class="cls-115" points="582.72 484.47 708.72 570.55 714.72 330.33 582.72 484.47"/><polygon class="cls-111" points="624.72 733.7 524.42 1033 526.3 1033 528.17 1033 530.05 1033 531.92 1033 533.8 1033 535.67 1033 537.55 1033 539.42 1033 541.3 1033 543.17 1033 545.05 1033 546.92 1033 548.79 1033 550.67 1033 552.54 1033 554.42 1033 556.29 1033 558.17 1033 560.04 1033 561.92 1033 563.79 1033 565.67 1033 567.54 1033 569.42 1033 571.29 1033 573.17 1033 575.04 1033 576.92 1033 578.79 1033 580.67 1033 582.54 1033 584.42 1033 586.29 1033 588.16 1033 590.04 1033 591.91 1033 593.79 1033 595.66 1033 597.54 1033 599.41 1033 601.29 1033 603.16 1033 605.04 1033 606.91 1033 608.79 1033 610.66 1033 612.54 1033 614.41 1033 616.29 1033 618.16 1033 620.04 1033 621.91 1033 623.78 1033 625.66 1033 627.53 1033 629.41 1033 631.28 1033 633.16 1033 635.03 1033 636.91 1033 638.78 1033 640.66 1033 642.53 1033 644.41 1033 646.28 1033 648.16 1033 650.03 1033 651.91 1033 653.78 1033 655.66 1033 657.53 1033 659.41 1033 661.28 1033 663.15 1033 665.03 1033 666.9 1033 668.78 1033 670.65 1033 672.53 1033 674.4 1033 676.28 1033 678.15 1033 680.03 1033 624.72 733.7"/><polygon class="cls-110" points="667.72 0 666.97 0 666.23 0 665.49 0 664.74 0 664 0 663.25 0 662.51 0 661.77 0 661.02 0 660.28 0 659.53 0 658.79 0 658.05 0 657.3 0 656.56 0 655.81 0 655.07 0 654.32 0 653.58 0 652.84 0 652.09 0 651.35 0 650.6 0 649.86 0 649.12 0 648.37 0 647.63 0 646.88 0 646.14 0 645.4 0 644.65 0 643.91 0 643.16 0 642.42 0 641.68 0 640.93 0 640.19 0 639.44 0 638.7 0 637.95 0 637.21 0 636.47 0 635.72 0 634.98 0 634.23 0 633.49 0 632.75 0 632 0 631.26 0 630.51 0 629.77 0 629.03 0 628.28 0 627.54 0 626.79 0 626.05 0 625.3 0 624.56 0 623.82 0 623.07 0 622.33 0 621.58 0 620.84 0 620.1 0 619.35 0 618.61 0 617.86 0 617.12 0 616.38 0 615.63 0 614.89 0 614.14 0 613.4 0 612.66 0 611.91 0 611.17 0 610.42 0 609.68 0 608.93 0 608.19 0 607.45 0 606.7 0 605.96 0 605.21 0 635.72 13.03 668.46 0 667.72 0"/><polygon class="cls-112" points="799.72 4.03 635.72 13.03 848.72 90.11 799.72 4.03"/><polygon class="cls-106" points="799.72 4.03 787.97 0 668.46 0 635.72 13.03 799.72 4.03"/><polygon class="cls-107" points="848.72 90.11 635.72 13.03 667.72 244.25 848.72 90.11"/><polygon class="cls-108" points="657.72 724.69 624.72 733.7 680.03 1033 682.14 1033 684.02 1033 685.9 1033 687.77 1033 701.94 1033 837.72 810.77 657.72 724.69"/><polygon class="cls-109" points="657.72 724.69 837.72 810.77 795.72 615.59 657.72 724.69"/><polygon class="cls-103" points="837.72 810.77 751.48 1033 756.6 1033 870.72 855.81 837.72 810.77"/><polygon class="cls-104" points="701.94 1033 703.78 1033 705.61 1033 707.44 1033 709.28 1033 711.11 1033 712.95 1033 714.78 1033 716.62 1033 718.45 1033 720.29 1033 722.12 1033 723.96 1033 725.79 1033 727.63 1033 729.46 1033 731.3 1033 733.13 1033 734.97 1033 736.8 1033 738.64 1033 740.47 1033 742.31 1033 744.14 1033 745.98 1033 747.81 1033 749.65 1033 751.48 1033 837.72 810.77 701.94 1033"/><polygon class="cls-105" points="848.72 90.11 847.92 0 807.15 0 799.72 4.03 848.72 90.11"/><polygon class="cls-100" points="806.84 0 806.53 0 806.22 0 805.91 0 805.6 0 805.29 0 804.98 0 804.67 0 804.36 0 804.05 0 803.74 0 803.43 0 803.13 0 802.82 0 802.51 0 802.2 0 801.89 0 801.58 0 801.27 0 800.96 0 800.65 0 800.34 0 800.03 0 799.72 0 799.41 0 799.1 0 798.79 0 798.48 0 798.18 0 797.87 0 797.56 0 797.25 0 796.94 0 796.63 0 796.32 0 796.01 0 795.7 0 795.39 0 795.08 0 794.77 0 794.46 0 794.15 0 793.84 0 793.53 0 793.23 0 792.92 0 792.61 0 792.3 0 791.99 0 791.68 0 791.37 0 791.06 0 790.75 0 790.44 0 790.13 0 789.82 0 789.51 0 789.2 0 788.89 0 788.58 0 788.28 0 787.97 0 799.72 4.03 807.15 0 806.84 0"/><polygon class="cls-101" points="714.72 330.33 708.72 570.55 880.72 375.37 714.72 330.33"/><polygon class="cls-102" points="795.72 615.59 837.72 810.77 921.72 695.67 795.72 615.59"/><polygon class="cls-131" points="880.72 375.37 708.72 570.55 927.72 455.44 880.72 375.37"/><polygon class="cls-130" points="708.72 570.55 795.72 615.59 927.72 455.44 708.72 570.55"/><polygon class="cls-139" points="714.72 330.33 848.72 90.11 667.72 244.25 714.72 330.33"/><polygon class="cls-138" points="880.72 375.37 848.72 90.11 714.72 330.33 880.72 375.37"/><polygon class="cls-137" points="837.72 810.77 870.72 855.81 921.72 695.67 837.72 810.77"/><polygon class="cls-136" points="921.72 695.67 870.72 855.81 1008.72 730.7 921.72 695.67"/><polygon class="cls-135" points="795.72 615.59 921.72 695.67 927.72 455.44 795.72 615.59"/><polygon class="cls-134" points="921.86 0 920.26 0 918.65 0 917.04 0 915.43 0 913.83 0 912.22 0 910.61 0 909 0 907.4 0 905.79 0 904.18 0 902.57 0 900.97 0 899.36 0 897.75 0 896.14 0 894.54 0 892.93 0 891.32 0 889.71 0 888.11 0 886.5 0 884.89 0 883.28 0 881.68 0 880.07 0 878.46 0 876.85 0 875.25 0 873.64 0 872.03 0 870.42 0 868.82 0 867.21 0 865.6 0 863.99 0 862.39 0 860.78 0 859.17 0 857.56 0 855.96 0 854.35 0 852.74 0 851.13 0 849.53 0 847.92 0 848.72 90.11 923.47 0 921.86 0"/><polygon class="cls-132" points="1012.72 135.15 951.66 0 923.47 0 848.72 90.11 1012.72 135.15"/><polygon class="cls-133" points="1012.72 135.15 848.72 90.11 880.72 375.37 1012.72 135.15"/><polygon class="cls-129" points="870.72 855.81 756.6 1033 758.4 1033 760.2 1033 761.99 1033 763.79 1033 765.59 1033 767.38 1033 769.18 1033 770.98 1033 772.78 1033 774.57 1033 776.37 1033 778.17 1033 779.96 1033 781.76 1033 783.56 1033 785.36 1033 787.15 1033 788.95 1033 790.75 1033 792.54 1033 794.34 1033 796.14 1033 797.94 1033 799.73 1033 801.53 1033 803.33 1033 805.13 1033 806.92 1033 808.72 1033 810.52 1033 812.31 1033 814.11 1033 815.91 1033 817.71 1033 819.5 1033 821.3 1033 823.1 1033 824.89 1033 826.69 1033 828.49 1033 830.29 1033 832.08 1033 833.88 1033 835.68 1033 837.47 1033 839.27 1033 841.07 1033 842.87 1033 844.66 1033 846.46 1033 848.26 1033 850.05 1033 851.85 1033 853.65 1033 855.45 1033 857.24 1033 859.04 1033 860.84 1033 862.63 1033 864.43 1033 866.23 1033 868.03 1033 869.82 1033 871.62 1033 873.42 1033 875.22 1033 877.01 1033 878.81 1033 880.61 1033 882.4 1033 884.2 1033 886 1033 887.8 1033 889.59 1033 891.39 1033 893.19 1033 894.98 1033 896.78 1033 898.58 1033 900.38 1033 902.17 1033 903.97 1033 905.77 1033 907.56 1033 909.36 1033 911.16 1033 912.96 1033 914.75 1033 916.55 1033 918.35 1033 920.14 1033 921.94 1033 923.74 1033 925.54 1033 927.33 1033 929.13 1033 930.93 1033 932.72 1033 870.72 855.81"/><polygon class="cls-121" points="870.72 855.81 932.72 1033 958.68 1033 1050.72 935.89 870.72 855.81"/><polygon class="cls-127" points="1061.72 215.22 1012.72 135.15 880.72 375.37 1061.72 215.22"/><polygon class="cls-128" points="1050.72 935.89 1029.99 1033 1039.85 1033 1083.72 970.92 1050.72 935.89"/><polygon class="cls-126" points="958.68 1033 960.33 1033 961.99 1033 963.65 1033 965.31 1033 966.97 1033 968.63 1033 970.29 1033 971.94 1033 973.6 1033 975.26 1033 976.92 1033 978.58 1033 980.24 1033 981.9 1033 983.55 1033 985.21 1033 986.87 1033 988.53 1033 990.19 1033 991.85 1033 993.5 1033 995.16 1033 996.82 1033 998.48 1033 1000.14 1033 1001.8 1033 1003.46 1033 1005.11 1033 1006.77 1033 1008.43 1033 1010.09 1033 1011.75 1033 1013.41 1033 1015.06 1033 1016.72 1033 1018.38 1033 1020.04 1033 1021.7 1033 1023.36 1033 1025.02 1033 1026.67 1033 1028.33 1033 1029.99 1033 1050.72 935.89 958.68 1033"/><polygon class="cls-122" points="870.72 855.81 1050.72 935.89 1008.72 730.7 870.72 855.81"/><polygon class="cls-124" points="927.72 455.44 921.72 695.67 1093.72 490.48 927.72 455.44"/><polygon class="cls-125" points="1050.72 935.89 1134.72 821.78 1008.72 730.7 1050.72 935.89"/><polygon class="cls-120" points="921.72 695.67 1140.72 581.56 1093.72 490.48 921.72 695.67"/><polygon class="cls-123" points="1008.72 730.7 1140.72 581.56 921.72 695.67 1008.72 730.7"/><polygon class="cls-41" points="927.72 455.44 1061.72 215.22 880.72 375.37 927.72 455.44"/><polygon class="cls-40" points="1093.72 490.48 1061.72 215.22 927.72 455.44 1093.72 490.48"/><polygon class="cls-34" points="1083.72 970.92 1134.72 821.78 1050.72 935.89 1083.72 970.92"/><polygon class="cls-33" points="1008.72 730.7 1134.72 821.78 1140.72 581.56 1008.72 730.7"/><polygon class="cls-32" points="1140.72 581.56 1134.72 821.78 1221.72 787.75 1140.72 581.56"/><polygon class="cls-35" points="1225.72 250.25 1061.72 215.22 1093.72 490.48 1225.72 250.25"/><polygon class="cls-28" points="1274.72 341.34 1225.72 250.25 1093.72 490.48 1274.72 341.34"/><polygon class="cls-29" points="1061.72 215.22 1136.12 0 1125.38 0 1012.72 135.15 1061.72 215.22"/><polygon class="cls-31" points="1123.66 0 1121.94 0 1120.22 0 1118.5 0 1116.78 0 1115.06 0 1113.34 0 1111.62 0 1109.9 0 1108.18 0 1106.46 0 1104.74 0 1103.02 0 1101.3 0 1099.58 0 1097.86 0 1096.14 0 1094.42 0 1092.7 0 1090.98 0 1089.26 0 1087.54 0 1085.82 0 1084.1 0 1082.38 0 1080.66 0 1078.94 0 1077.22 0 1075.5 0 1073.78 0 1072.06 0 1070.34 0 1068.62 0 1066.9 0 1065.18 0 1063.46 0 1061.74 0 1060.02 0 1058.3 0 1056.58 0 1054.86 0 1053.14 0 1051.42 0 1049.7 0 1047.98 0 1046.26 0 1044.54 0 1042.82 0 1041.1 0 1039.38 0 1037.66 0 1035.94 0 1034.22 0 1032.5 0 1030.78 0 1029.06 0 1027.34 0 1025.62 0 1023.9 0 1022.18 0 1020.46 0 1018.74 0 1017.02 0 1015.3 0 1013.58 0 1011.86 0 1010.14 0 1008.42 0 1006.7 0 1004.98 0 1003.26 0 1001.54 0 999.82 0 998.1 0 996.38 0 994.66 0 992.94 0 991.22 0 989.5 0 987.78 0 986.06 0 984.34 0 982.62 0 980.9 0 979.18 0 977.46 0 975.74 0 974.02 0 972.3 0 970.58 0 968.86 0 967.14 0 965.42 0 963.7 0 961.98 0 960.26 0 958.54 0 956.82 0 955.1 0 953.38 0 951.66 0 1012.72 135.15 1125.38 0 1123.66 0"/><polygon class="cls-30" points="1156.08 0 1154.26 0 1152.45 0 1150.63 0 1148.82 0 1147 0 1145.19 0 1143.38 0 1141.56 0 1139.75 0 1137.93 0 1136.12 0 1061.72 215.22 1157.89 0 1156.08 0"/><polygon class="cls-22" points="1225.72 250.25 1172.41 0 1157.89 0 1061.72 215.22 1225.72 250.25"/><polygon class="cls-18" points="1093.72 490.48 1140.72 581.56 1306.72 547.53 1093.72 490.48"/><polygon class="cls-19" points="1083.72 970.92 1039.85 1033 1041.37 1033 1042.88 1033 1044.39 1033 1045.9 1033 1047.42 1033 1048.93 1033 1050.44 1033 1051.96 1033 1053.47 1033 1054.98 1033 1056.49 1033 1058.01 1033 1059.52 1033 1061.03 1033 1062.54 1033 1064.06 1033 1065.57 1033 1067.08 1033 1068.59 1033 1070.11 1033 1071.62 1033 1073.13 1033 1074.65 1033 1076.16 1033 1077.67 1033 1079.18 1033 1080.7 1033 1082.21 1033 1083.72 1033 1085.23 1033 1086.75 1033 1088.26 1033 1089.77 1033 1091.29 1033 1092.8 1033 1094.31 1033 1095.82 1033 1097.34 1033 1098.85 1033 1100.36 1033 1101.88 1033 1103.39 1033 1104.9 1033 1106.41 1033 1107.93 1033 1109.44 1033 1110.95 1033 1112.46 1033 1113.98 1033 1115.49 1033 1117 1033 1118.52 1033 1120.03 1033 1121.54 1033 1123.05 1033 1124.57 1033 1126.08 1033 1127.59 1033 1129.1 1033 1130.62 1033 1132.13 1033 1133.64 1033 1135.15 1033 1136.67 1033 1138.18 1033 1139.69 1033 1141.21 1033 1142.72 1033 1144.23 1033 1145.74 1033 1147.26 1033 1148.77 1033 1150.28 1033 1151.79 1033 1153.31 1033 1154.82 1033 1156.33 1033 1157.85 1033 1159.36 1033 1160.87 1033 1162.38 1033 1163.9 1033 1165.41 1033 1166.92 1033 1168.44 1033 1169.95 1033 1171.46 1033 1172.97 1033 1083.72 970.92"/><polygon class="cls-23" points="1083.72 970.92 1172.97 1033 1195.93 1033 1134.72 821.78 1083.72 970.92"/><polygon class="cls-24" points="1274.72 341.34 1093.72 490.48 1306.72 547.53 1274.72 341.34"/><polygon class="cls-25" points="1134.72 821.78 1347.72 898.85 1221.72 787.75 1134.72 821.78"/><polygon class="cls-26" points="1134.72 821.78 1195.93 1033 1197.75 1033 1199.58 1033 1201.41 1033 1203.24 1033 1205.06 1033 1206.89 1033 1208.72 1033 1210.54 1033 1212.37 1033 1236.33 1033 1347.72 898.85 1134.72 821.78"/><polygon class="cls-16" points="1347.72 898.85 1236.33 1033 1281.26 1033 1296.72 1027.97 1347.72 898.85"/><polygon class="cls-17" points="1140.72 581.56 1221.72 787.75 1353.72 658.63 1140.72 581.56"/><polygon class="cls-27" points="1306.72 547.53 1140.72 581.56 1353.72 658.63 1306.72 547.53"/><polygon class="cls-45" points="1220.21 0 1218.37 0 1216.53 0 1214.69 0 1212.85 0 1211.02 0 1209.18 0 1207.34 0 1205.5 0 1203.66 0 1201.82 0 1199.98 0 1198.15 0 1196.31 0 1194.47 0 1192.63 0 1190.79 0 1188.95 0 1187.12 0 1185.28 0 1183.44 0 1181.6 0 1179.76 0 1177.92 0 1176.09 0 1174.25 0 1172.41 0 1225.72 250.25 1220.21 0"/><polygon class="cls-39" points="1355.72 101.12 1244.02 0 1220.21 0 1225.72 250.25 1355.72 101.12"/><polygon class="cls-38" points="1296.72 1027.97 1281.26 1033 1281.66 1033 1282.06 1033 1282.46 1033 1282.86 1033 1283.26 1033 1283.67 1033 1284.07 1033 1284.47 1033 1284.87 1033 1285.27 1033 1285.67 1033 1286.08 1033 1286.48 1033 1286.88 1033 1287.28 1033 1287.68 1033 1288.08 1033 1288.49 1033 1288.89 1033 1289.29 1033 1289.69 1033 1290.09 1033 1290.5 1033 1290.9 1033 1291.3 1033 1291.7 1033 1292.1 1033 1292.5 1033 1292.91 1033 1293.31 1033 1293.71 1033 1294.11 1033 1294.51 1033 1294.91 1033 1295.32 1033 1295.72 1033 1296.12 1033 1296.52 1033 1296.92 1033 1297.32 1033 1297.73 1033 1298.13 1033 1298.53 1033 1298.93 1033 1299.33 1033 1299.74 1033 1300.14 1033 1300.54 1033 1300.94 1033 1301.34 1033 1301.74 1033 1302.15 1033 1302.55 1033 1302.95 1033 1303.35 1033 1303.75 1033 1304.15 1033 1304.56 1033 1304.96 1033 1305.36 1033 1305.76 1033 1306.16 1033 1306.56 1033 1306.97 1033 1307.37 1033 1307.77 1033 1308.17 1033 1296.72 1027.97"/><polygon class="cls-36" points="1296.72 1027.97 1308.17 1033 1352.94 1033 1347.72 898.85 1296.72 1027.97"/><polygon class="cls-44" points="1221.72 787.75 1434.72 762.73 1353.72 658.63 1221.72 787.75"/><polygon class="cls-43" points="1221.72 787.75 1347.72 898.85 1434.72 762.73 1221.72 787.75"/><polygon class="cls-42" points="1438.72 307.31 1225.72 250.25 1274.72 341.34 1438.72 307.31"/><polygon class="cls-20" points="1355.72 101.12 1225.72 250.25 1438.72 307.31 1355.72 101.12"/><polygon class="cls-21" points="1306.72 547.53 1487.72 418.41 1274.72 341.34 1306.72 547.53"/><polygon class="cls-37" points="1487.72 418.41 1438.72 307.31 1274.72 341.34 1487.72 418.41"/><polygon class="cls-9" points="1347.72 898.85 1415.6 1033 1459.29 1033 1509.72 1002.95 1347.72 898.85"/><polygon class="cls-11" points="1347.72 898.85 1352.94 1033 1354.68 1033 1356.42 1033 1358.17 1033 1359.91 1033 1361.65 1033 1363.39 1033 1365.13 1033 1366.87 1033 1368.61 1033 1370.35 1033 1372.09 1033 1373.83 1033 1375.57 1033 1377.31 1033 1379.05 1033 1380.79 1033 1382.53 1033 1384.27 1033 1386.01 1033 1387.75 1033 1389.5 1033 1391.24 1033 1392.98 1033 1394.72 1033 1396.46 1033 1398.2 1033 1399.94 1033 1401.68 1033 1403.42 1033 1405.16 1033 1406.9 1033 1408.64 1033 1410.38 1033 1412.12 1033 1413.86 1033 1415.6 1033 1347.72 898.85"/><polygon class="cls-8" points="1519.72 522.51 1487.72 418.41 1306.72 547.53 1519.72 522.51"/><polygon class="cls-7" points="1353.72 658.63 1519.72 522.51 1306.72 547.53 1353.72 658.63"/><polygon class="cls-13" points="1509.72 1002.95 1560.72 898.85 1347.72 898.85 1509.72 1002.95"/><polygon class="cls-10" points="1347.72 898.85 1560.72 898.85 1434.72 762.73 1347.72 898.85"/><polygon class="cls-12" points="1434.72 762.73 1566.72 658.63 1353.72 658.63 1434.72 762.73"/><polygon class="cls-6" points="1568.72 178.19 1355.72 101.12 1438.72 307.31 1568.72 178.19"/><polygon class="cls-15" points="1566.72 658.63 1519.72 522.51 1353.72 658.63 1566.72 658.63"/><polygon class="cls-14" points="1568.72 178.19 1487.72 0 1455.92 0 1355.72 101.12 1568.72 178.19"/><polygon class="cls-72" points="1454.28 0 1452.64 0 1450.99 0 1449.35 0 1447.71 0 1446.07 0 1444.42 0 1442.78 0 1441.14 0 1439.5 0 1437.85 0 1436.21 0 1434.57 0 1432.93 0 1431.28 0 1429.64 0 1428 0 1426.36 0 1424.71 0 1423.07 0 1421.43 0 1419.78 0 1418.14 0 1416.5 0 1414.86 0 1413.21 0 1411.57 0 1409.93 0 1408.29 0 1406.64 0 1405 0 1403.36 0 1401.72 0 1400.07 0 1398.43 0 1396.79 0 1395.15 0 1393.5 0 1391.86 0 1390.22 0 1388.57 0 1386.93 0 1385.29 0 1383.65 0 1382 0 1380.36 0 1378.72 0 1377.08 0 1375.43 0 1373.79 0 1372.15 0 1370.51 0 1368.86 0 1367.22 0 1365.58 0 1363.94 0 1362.29 0 1360.65 0 1359.01 0 1357.36 0 1355.72 0 1354.08 0 1352.44 0 1350.79 0 1349.15 0 1347.51 0 1345.87 0 1344.22 0 1342.58 0 1340.94 0 1339.3 0 1337.65 0 1336.01 0 1334.37 0 1332.73 0 1331.08 0 1329.44 0 1327.8 0 1326.15 0 1324.51 0 1322.87 0 1321.23 0 1319.58 0 1317.94 0 1316.3 0 1314.66 0 1313.01 0 1311.37 0 1309.73 0 1308.09 0 1306.44 0 1304.8 0 1303.16 0 1301.52 0 1299.87 0 1298.23 0 1296.59 0 1294.94 0 1293.3 0 1291.66 0 1290.02 0 1288.37 0 1286.73 0 1285.09 0 1283.45 0 1281.8 0 1280.16 0 1278.52 0 1276.88 0 1275.23 0 1273.59 0 1271.95 0 1270.31 0 1268.66 0 1267.02 0 1265.38 0 1263.73 0 1262.09 0 1260.45 0 1258.81 0 1257.16 0 1255.52 0 1253.88 0 1252.24 0 1250.59 0 1248.95 0 1247.31 0 1245.67 0 1244.02 0 1355.72 101.12 1455.92 0 1454.28 0"/><polygon class="cls-71" points="1438.72 307.31 1651.72 282.28 1568.72 178.19 1438.72 307.31"/><polygon class="cls-74" points="1487.72 418.41 1651.72 282.28 1438.72 307.31 1487.72 418.41"/><polygon class="cls-69" points="1509.72 1002.95 1554.15 1033 1580.74 1033 1560.72 898.85 1509.72 1002.95"/><polygon class="cls-63" points="1509.72 1002.95 1459.29 1033 1460.49 1033 1461.69 1033 1462.89 1033 1464.09 1033 1465.29 1033 1466.49 1033 1467.69 1033 1468.89 1033 1470.09 1033 1471.29 1033 1472.5 1033 1473.7 1033 1474.9 1033 1476.1 1033 1477.3 1033 1478.5 1033 1479.7 1033 1480.9 1033 1482.1 1033 1483.3 1033 1484.5 1033 1485.7 1033 1486.91 1033 1488.11 1033 1489.31 1033 1490.51 1033 1491.71 1033 1492.91 1033 1494.11 1033 1495.31 1033 1496.51 1033 1497.71 1033 1498.91 1033 1500.12 1033 1501.32 1033 1502.52 1033 1503.72 1033 1504.92 1033 1506.12 1033 1507.32 1033 1508.52 1033 1509.72 1033 1510.92 1033 1512.12 1033 1513.32 1033 1514.53 1033 1515.73 1033 1516.93 1033 1518.13 1033 1519.33 1033 1520.53 1033 1521.73 1033 1522.93 1033 1524.13 1033 1525.33 1033 1526.53 1033 1527.74 1033 1528.94 1033 1530.14 1033 1531.34 1033 1532.54 1033 1533.74 1033 1534.94 1033 1536.14 1033 1537.34 1033 1538.54 1033 1539.74 1033 1540.94 1033 1542.15 1033 1543.35 1033 1544.55 1033 1545.75 1033 1546.95 1033 1548.15 1033 1549.35 1033 1550.55 1033 1551.75 1033 1552.95 1033 1554.15 1033 1509.72 1002.95"/><polygon class="cls-64" points="1434.72 762.73 1560.72 898.85 1566.72 658.63 1434.72 762.73"/><polygon class="cls-68" points="1700.72 418.41 1487.72 418.41 1519.72 522.51 1700.72 418.41"/><polygon class="cls-73" points="1700.72 418.41 1651.72 282.28 1487.72 418.41 1700.72 418.41"/><polygon class="cls-65" points="1560.72 898.85 1647.72 667.64 1566.72 658.63 1560.72 898.85"/><polygon class="cls-66" points="1566.72 658.63 1647.72 667.64 1519.72 522.51 1566.72 658.63"/><polygon class="cls-52" points="1560.72 898.85 1629.47 1033 1651.16 1033 1722.72 907.86 1560.72 898.85"/><polygon class="cls-50" points="1560.72 898.85 1580.74 1033 1582.48 1033 1584.22 1033 1585.96 1033 1587.7 1033 1589.44 1033 1591.18 1033 1592.92 1033 1594.66 1033 1596.4 1033 1598.14 1033 1599.88 1033 1601.62 1033 1603.37 1033 1605.11 1033 1606.85 1033 1608.59 1033 1610.33 1033 1612.07 1033 1613.81 1033 1615.55 1033 1617.29 1033 1619.03 1033 1620.77 1033 1622.51 1033 1624.25 1033 1625.99 1033 1627.73 1033 1629.47 1033 1560.72 898.85"/><polygon class="cls-48" points="1722.72 907.86 1773.72 821.78 1560.72 898.85 1722.72 907.86"/><polygon class="cls-53" points="1773.72 821.78 1647.72 667.64 1560.72 898.85 1773.72 821.78"/><polygon class="cls-47" points="1519.72 522.51 1647.72 667.64 1700.72 418.41 1519.72 522.51"/><polygon class="cls-49" points="1651.72 282.28 1781.72 178.19 1568.72 178.19 1651.72 282.28"/><polygon class="cls-51" points="1647.72 667.64 1779.72 581.56 1700.72 418.41 1647.72 667.64"/><polygon class="cls-46" points="1779.72 581.56 1732.72 427.42 1700.72 418.41 1779.72 581.56"/><polygon class="cls-62" points="1781.72 178.19 1687.37 0 1663.96 0 1568.72 178.19 1781.72 178.19"/><polygon class="cls-61" points="1662.18 0 1660.4 0 1658.62 0 1656.84 0 1655.06 0 1653.28 0 1651.5 0 1649.72 0 1647.94 0 1646.16 0 1644.38 0 1642.6 0 1640.82 0 1639.04 0 1637.26 0 1635.48 0 1633.7 0 1631.92 0 1630.14 0 1628.36 0 1626.58 0 1624.8 0 1623.02 0 1621.24 0 1619.46 0 1617.68 0 1615.9 0 1614.12 0 1612.34 0 1610.56 0 1608.78 0 1607 0 1605.22 0 1603.44 0 1601.66 0 1599.88 0 1598.1 0 1596.32 0 1594.54 0 1592.76 0 1590.98 0 1589.19 0 1587.41 0 1585.63 0 1583.85 0 1582.07 0 1580.29 0 1578.51 0 1576.73 0 1574.95 0 1573.17 0 1571.39 0 1569.61 0 1567.83 0 1566.05 0 1564.27 0 1562.49 0 1560.71 0 1558.93 0 1557.15 0 1555.37 0 1553.59 0 1551.81 0 1550.03 0 1548.25 0 1546.47 0 1544.69 0 1542.91 0 1541.13 0 1539.35 0 1537.57 0 1535.79 0 1534.01 0 1532.23 0 1530.45 0 1528.67 0 1526.89 0 1525.11 0 1523.33 0 1521.55 0 1519.77 0 1517.99 0 1516.21 0 1514.43 0 1512.65 0 1510.87 0 1509.08 0 1507.3 0 1505.52 0 1503.74 0 1501.96 0 1500.18 0 1498.4 0 1496.62 0 1494.84 0 1493.06 0 1491.28 0 1489.5 0 1487.72 0 1568.72 178.19 1663.96 0 1662.18 0"/><polygon class="cls-60" points="1732.72 427.42 1651.72 282.28 1700.72 418.41 1732.72 427.42"/><polygon class="cls-55" points="1722.72 907.86 1651.16 1033 1652.88 1033 1654.61 1033 1656.33 1033 1658.06 1033 1659.78 1033 1661.5 1033 1663.23 1033 1664.95 1033 1666.68 1033 1668.4 1033 1670.13 1033 1671.85 1033 1673.58 1033 1675.3 1033 1677.02 1033 1678.75 1033 1680.47 1033 1682.2 1033 1683.92 1033 1685.65 1033 1687.37 1033 1689.1 1033 1690.82 1033 1692.54 1033 1694.27 1033 1695.99 1033 1697.72 1033 1699.44 1033 1701.17 1033 1702.89 1033 1704.62 1033 1706.34 1033 1708.06 1033 1709.79 1033 1711.51 1033 1713.24 1033 1714.96 1033 1716.69 1033 1718.41 1033 1720.14 1033 1721.86 1033 1723.58 1033 1725.31 1033 1727.03 1033 1728.76 1033 1730.48 1033 1732.21 1033 1733.93 1033 1735.66 1033 1737.38 1033 1739.1 1033 1740.83 1033 1742.55 1033 1744.28 1033 1746 1033 1747.73 1033 1749.45 1033 1751.18 1033 1752.9 1033 1754.62 1033 1756.35 1033 1758.07 1033 1759.8 1033 1761.52 1033 1763.25 1033 1764.97 1033 1766.7 1033 1768.42 1033 1770.14 1033 1771.87 1033 1773.59 1033 1775.32 1033 1777.04 1033 1778.77 1033 1722.72 907.86"/><polygon class="cls-59" points="1774.6 0 1772.82 0 1771.04 0 1769.26 0 1767.48 0 1765.7 0 1763.92 0 1762.14 0 1760.36 0 1758.58 0 1756.8 0 1755.02 0 1753.24 0 1751.46 0 1749.68 0 1747.9 0 1746.12 0 1744.34 0 1742.56 0 1740.78 0 1739 0 1737.22 0 1735.44 0 1733.66 0 1731.88 0 1730.1 0 1728.32 0 1726.54 0 1724.76 0 1722.98 0 1721.19 0 1719.41 0 1717.63 0 1715.85 0 1714.07 0 1712.29 0 1710.51 0 1708.73 0 1706.95 0 1705.17 0 1703.39 0 1701.61 0 1699.83 0 1698.05 0 1696.27 0 1694.49 0 1692.71 0 1690.93 0 1689.15 0 1687.37 0 1781.72 178.19 1774.6 0"/><polygon class="cls-56" points="1835.7 0 1834.43 0 1833.7 0 1832.41 0 1831.7 0 1830.39 0 1829.7 0 1828.37 0 1827.7 0 1826.35 0 1825.7 0 1824.33 0 1823.7 0 1822.31 0 1821.7 0 1820.29 0 1819.7 0 1818.28 0 1817.7 0 1816.26 0 1815.7 0 1814.25 0 1813.7 0 1812.24 0 1811.7 0 1810.22 0 1809.7 0 1808.21 0 1807.7 0 1806.2 0 1805.7 0 1804.19 0 1803.7 0 1802.18 0 1801.7 0 1800.17 0 1799.7 0 1798.16 0 1797.7 0 1796.15 0 1795.7 0 1774.6 0 1781.72 178.19 1836.44 118.65 1836.44 40.78 1836.44 39.53 1836.44 38.78 1836.44 37.54 1836.44 36.78 1836.44 35.55 1836.44 34.78 1836.44 33.57 1836.44 32.77 1836.44 31.58 1836.44 30.77 1836.44 29.6 1836.44 28.77 1836.44 27.62 1836.44 26.77 1836.44 25.63 1836.44 24.77 1836.44 23.65 1836.44 22.77 1836.44 21.67 1836.44 20.76 1836.44 19.69 1836.44 18.76 1836.44 17.72 1836.44 16.76 1836.44 15.74 1836.44 14.76 1836.44 13.76 1836.44 12.76 1836.44 11.79 1836.44 10.75 1836.44 9.82 1836.44 8.75 1836.44 7.85 1836.44 6.75 1836.44 5.88 1836.44 4.75 1836.44 3.91 1836.44 2.75 1836.44 1.95 1836.44 .74 1836.44 0 1835.7 0"/><polygon class="cls-54" points="1781.72 178.19 1836.44 200.81 1836.44 184.13 1836.44 167.47 1836.44 166.28 1836.44 165.09 1836.44 163.9 1836.44 162.71 1836.44 161.52 1836.44 160.33 1836.44 159.14 1836.44 157.94 1836.44 156.75 1836.44 155.56 1836.44 154.37 1836.44 153.18 1836.44 151.99 1836.44 150.8 1836.44 149.61 1836.44 148.42 1836.44 147.23 1836.44 146.04 1836.44 144.85 1836.44 143.66 1836.44 142.47 1836.44 141.27 1836.44 140.08 1836.44 138.89 1836.44 137.7 1836.44 136.51 1836.44 135.32 1836.44 134.13 1836.44 132.94 1836.44 131.75 1836.44 130.56 1836.44 129.37 1836.44 128.18 1836.44 126.99 1836.44 125.8 1836.44 124.6 1836.44 123.41 1836.44 122.22 1836.44 121.03 1836.44 119.84 1836.44 118.65 1781.72 178.19"/><polygon class="cls-57" points="1781.72 178.19 1836.44 243.68 1836.44 242.49 1836.44 241.29 1836.44 240.1 1836.44 238.91 1836.44 237.72 1836.44 236.53 1836.44 235.34 1836.44 234.15 1836.44 232.96 1836.44 231.77 1836.44 230.58 1836.44 229.39 1836.44 228.2 1836.44 227.01 1836.44 225.82 1836.44 224.62 1836.44 223.43 1836.44 222.24 1836.44 221.05 1836.44 219.86 1836.44 218.67 1836.44 217.48 1836.44 216.29 1836.44 215.1 1836.44 213.91 1836.44 212.72 1836.44 211.53 1836.44 210.34 1836.44 209.15 1836.44 207.95 1836.44 206.76 1836.44 205.57 1836.44 204.38 1836.44 203.19 1836.44 202 1836.44 200.81 1781.72 178.19"/><polygon class="cls-76" points="1651.72 282.28 1836.44 287.28 1836.44 243.68 1781.72 178.19 1651.72 282.28"/><polygon class="cls-58" points="1651.72 282.28 1836.44 310.6 1836.44 308.93 1836.44 307.27 1836.44 305.6 1836.44 303.94 1836.44 302.27 1836.44 300.61 1836.44 298.94 1836.44 297.27 1836.44 295.61 1836.44 293.94 1836.44 292.28 1836.44 290.61 1836.44 288.95 1836.44 287.28 1651.72 282.28"/><polygon class="cls-75" points="1732.72 427.42 1836.44 345.69 1836.44 310.6 1651.72 282.28 1732.72 427.42"/><polygon class="cls-70" points="1732.72 427.42 1836.44 476.75 1836.44 475.28 1836.44 473.8 1836.44 472.33 1836.44 470.86 1836.44 469.39 1836.44 467.91 1836.44 466.44 1836.44 464.97 1836.44 463.5 1836.44 462.02 1836.44 460.55 1836.44 459.08 1836.44 457.61 1836.44 456.13 1836.44 454.66 1836.44 453.19 1836.44 451.72 1836.44 450.24 1836.44 448.77 1836.44 447.3 1836.44 445.82 1836.44 444.35 1836.44 442.88 1836.44 441.41 1836.44 439.93 1836.44 438.46 1836.44 436.99 1836.44 435.52 1836.44 434.04 1836.44 432.57 1836.44 431.1 1836.44 429.63 1836.44 428.15 1836.44 426.68 1836.44 425.21 1836.44 423.74 1836.44 422.26 1836.44 420.79 1836.44 419.32 1836.44 417.85 1836.44 416.37 1836.44 414.9 1836.44 413.43 1836.44 411.96 1836.44 410.48 1836.44 409.01 1836.44 407.54 1836.44 406.06 1836.44 404.59 1836.44 403.12 1836.44 401.65 1836.44 400.17 1836.44 398.7 1836.44 397.23 1836.44 395.76 1836.44 394.28 1836.44 392.81 1836.44 391.34 1836.44 389.87 1836.44 388.39 1836.44 386.92 1836.44 385.45 1836.44 383.98 1836.44 382.5 1836.44 381.03 1836.44 379.56 1836.44 378.09 1836.44 376.61 1836.44 375.14 1836.44 373.67 1836.44 372.2 1836.44 370.72 1836.44 369.25 1836.44 367.78 1836.44 366.3 1836.44 364.83 1836.44 363.36 1836.44 361.89 1836.44 360.41 1836.44 358.94 1836.44 357.47 1836.44 356 1836.44 354.52 1836.44 353.05 1836.44 351.58 1836.44 350.11 1836.44 348.63 1836.44 347.16 1836.44 345.69 1732.72 427.42"/><polygon class="cls-80" points="1779.72 581.56 1836.44 529.01 1836.44 476.75 1732.72 427.42 1779.72 581.56"/><polygon class="cls-67" points="1779.72 581.56 1836.44 649.81 1836.44 648.6 1836.44 647.39 1836.44 646.19 1836.44 644.98 1836.44 643.77 1836.44 642.56 1836.44 641.35 1836.44 640.15 1836.44 638.94 1836.44 637.73 1836.44 636.52 1836.44 635.31 1836.44 634.11 1836.44 632.9 1836.44 631.69 1836.44 630.48 1836.44 629.28 1836.44 628.07 1836.44 626.86 1836.44 625.65 1836.44 624.44 1836.44 623.24 1836.44 622.03 1836.44 620.82 1836.44 619.61 1836.44 618.4 1836.44 617.2 1836.44 615.99 1836.44 614.78 1836.44 613.57 1836.44 612.36 1836.44 611.16 1836.44 609.95 1836.44 608.74 1836.44 607.53 1836.44 606.32 1836.44 605.12 1836.44 603.91 1836.44 602.7 1836.44 601.49 1836.44 600.28 1836.44 599.08 1836.44 597.87 1836.44 596.66 1836.44 595.45 1836.44 594.24 1836.44 593.04 1836.44 591.83 1836.44 590.62 1836.44 589.41 1836.44 588.2 1836.44 587 1836.44 585.79 1836.44 584.58 1836.44 583.37 1836.44 582.16 1836.44 580.96 1836.44 579.75 1836.44 578.54 1836.44 577.33 1836.44 576.12 1836.44 574.92 1836.44 573.71 1836.44 572.5 1836.44 571.29 1836.44 570.08 1836.44 568.88 1836.44 567.67 1836.44 566.46 1836.44 565.25 1836.44 564.04 1836.44 562.84 1836.44 561.63 1836.44 560.42 1836.44 559.21 1836.44 558 1836.44 556.8 1836.44 555.59 1836.44 554.38 1836.44 553.17 1836.44 551.96 1836.44 550.76 1836.44 549.55 1836.44 548.34 1836.44 547.13 1836.44 545.93 1836.44 544.72 1836.44 543.51 1836.44 542.3 1836.44 541.09 1836.44 539.89 1836.44 538.68 1836.44 537.47 1836.44 536.26 1836.44 535.05 1836.44 533.85 1836.44 532.64 1836.44 531.43 1836.44 530.22 1836.44 529.01 1779.72 581.56"/><polygon class="cls-78" points="1647.72 667.64 1836.44 690.21 1836.44 649.81 1779.72 581.56 1647.72 667.64"/><polygon class="cls-81" points="1647.72 667.64 1836.44 700.24 1836.44 698.57 1836.44 696.89 1836.44 695.22 1836.44 693.55 1836.44 691.88 1836.44 690.21 1647.72 667.64"/><polygon class="cls-77" points="1773.72 821.78 1836.44 749.59 1836.44 700.24 1647.72 667.64 1773.72 821.78"/><polygon class="cls-79" points="1773.72 821.78 1836.44 867.61 1836.44 866.36 1836.44 865.1 1836.44 863.85 1836.44 862.59 1836.44 861.33 1836.44 860.08 1836.44 858.82 1836.44 857.57 1836.44 856.31 1836.44 855.06 1836.44 853.8 1836.44 852.54 1836.44 851.29 1836.44 850.03 1836.44 848.78 1836.44 847.52 1836.44 846.27 1836.44 845.01 1836.44 843.76 1836.44 842.5 1836.44 841.24 1836.44 839.99 1836.44 838.73 1836.44 837.48 1836.44 836.22 1836.44 834.97 1836.44 833.71 1836.44 832.46 1836.44 831.2 1836.44 829.94 1836.44 828.69 1836.44 827.43 1836.44 826.18 1836.44 824.92 1836.44 823.67 1836.44 822.41 1836.44 821.15 1836.44 819.9 1836.44 818.64 1836.44 817.39 1836.44 816.13 1836.44 814.88 1836.44 813.62 1836.44 812.37 1836.44 811.11 1836.44 809.85 1836.44 808.6 1836.44 807.34 1836.44 806.09 1836.44 804.83 1836.44 803.58 1836.44 802.32 1836.44 801.07 1836.44 799.81 1836.44 798.55 1836.44 797.3 1836.44 796.04 1836.44 794.79 1836.44 793.53 1836.44 792.28 1836.44 791.02 1836.44 789.76 1836.44 788.51 1836.44 787.25 1836.44 786 1836.44 784.74 1836.44 783.49 1836.44 782.23 1836.44 780.98 1836.44 779.72 1836.44 778.46 1836.44 777.21 1836.44 775.95 1836.44 774.7 1836.44 773.44 1836.44 772.19 1836.44 770.93 1836.44 769.68 1836.44 768.42 1836.44 767.16 1836.44 765.91 1836.44 764.65 1836.44 763.4 1836.44 762.14 1836.44 760.89 1836.44 759.63 1836.44 758.37 1836.44 757.12 1836.44 755.86 1836.44 754.61 1836.44 753.35 1836.44 752.1 1836.44 750.84 1836.44 749.59 1773.72 821.78"/><polygon class="cls-5" points="1722.72 907.86 1836.44 898.06 1836.44 867.61 1773.72 821.78 1722.72 907.86"/><polygon class="cls-4" points="1722.72 907.86 1836.44 952.34 1836.44 950.83 1836.44 949.32 1836.44 947.82 1836.44 946.31 1836.44 944.8 1836.44 943.29 1836.44 941.78 1836.44 940.28 1836.44 938.77 1836.44 937.26 1836.44 935.75 1836.44 934.25 1836.44 932.74 1836.44 931.23 1836.44 929.72 1836.44 928.22 1836.44 926.71 1836.44 925.2 1836.44 923.69 1836.44 922.19 1836.44 920.68 1836.44 919.17 1836.44 917.66 1836.44 916.15 1836.44 914.65 1836.44 913.14 1836.44 911.63 1836.44 910.12 1836.44 908.62 1836.44 907.11 1836.44 905.6 1836.44 904.09 1836.44 902.59 1836.44 901.08 1836.44 899.57 1836.44 898.06 1722.72 907.86"/><polygon class="cls-3" points="1778.77 1033 1807.7 1033 1836.44 1004.23 1836.44 952.34 1722.72 907.86 1778.77 1033"/><polygon class="cls-2" points="1807.7 1033 1809.24 1033 1809.7 1033 1811.22 1033 1811.7 1033 1813.21 1033 1813.7 1033 1821.2 1033 1823.7 1033 1825.13 1033 1825.7 1033 1832.76 1033 1835.7 1033 1836.44 1033 1836.44 1032.26 1836.44 1028.68 1836.44 1022.25 1836.44 1021.34 1836.44 1020.24 1836.44 1015.57 1836.44 1010.23 1836.44 1009.17 1836.44 1008.23 1836.44 1007.14 1836.44 1006.23 1836.44 1005.12 1836.44 1004.23 1807.7 1033"/></svg>