<?xml version="1.0" encoding="UTF-8"?><svg id="Layer_5" xmlns="http://www.w3.org/2000/svg" viewBox="0 0 1024 1024"><defs><style>.cls-1{opacity:.21;}.cls-1,.cls-2,.cls-3,.cls-4,.cls-5,.cls-6{fill:#fff;}.cls-2{opacity:.18;}.cls-7{opacity:.13;}.cls-3{opacity:.24;}.cls-4{opacity:.43;}.cls-5{opacity:.36;}.cls-6{opacity:.35;}</style></defs><g id="mimic"><g id="small"><g id="fainter" class="cls-7"><polygon class="cls-2" points="424.29 40.5 515.65 175.5 333.95 175.5 424.29 40.5"/><polygon class="cls-2" points="246.42 311.5 155.06 176.5 336.75 176.5 246.42 311.5"/><polygon class="cls-2" points="796.17 303.5 887.52 438.5 705.83 438.5 796.17 303.5"/><polygon class="cls-2" points="-41.94 706.5 -133.29 571.5 48.4 571.5 -41.94 706.5"/><polygon class="cls-2" points="420.16 571.5 511.52 706.5 329.82 706.5 420.16 571.5"/><polygon class="cls-2" points="590.16 570.5 681.52 705.5 499.82 705.5 590.16 570.5"/><polygon class="cls-2" points="693.18 705.5 601.82 570.5 783.52 570.5 693.18 705.5"/><polygon class="cls-2" points="976.83 304.5 1158.86 573.5 796.82 573.5 976.83 304.5"/><polygon class="cls-2" points="53.2 833.5 -34.09 704.5 139.53 704.5 53.2 833.5"/><polygon class="cls-2" points="318.82 703.5 410.18 838.5 228.49 838.5 318.82 703.5"/><polygon class="cls-2" points="601.84 836.5 510.49 701.5 692.18 701.5 601.84 836.5"/><polygon class="cls-2" points="873.51 704.5 964.86 839.5 783.17 839.5 873.51 704.5"/><polygon class="cls-2" points="42.57 1016.5 -48.78 881.5 132.91 881.5 42.57 1016.5"/><polygon class="cls-2" points="224.57 1016.5 133.22 881.5 314.91 881.5 224.57 1016.5"/><polygon class="cls-2" points="405.57 1016.5 314.22 881.5 495.91 881.5 405.57 1016.5"/><polygon class="cls-2" points="585.57 1016.5 494.22 881.5 675.91 881.5 585.57 1016.5"/><polygon class="cls-2" points="425.54 305.5 514.86 437.5 337.21 437.5 425.54 305.5"/><polygon class="cls-2" points="514.54 437.5 603.86 569.5 426.21 569.5 514.54 437.5"/><polygon class="cls-2" points="436.53 569.5 347.21 437.5 524.86 437.5 436.53 569.5"/></g><g id="faint"><polygon class="cls-1" points="154.43 177.5 244.43 310.5 65.43 310.5 154.43 177.5"/><polygon class="cls-1" points="152.43 437.5 62.43 304.5 241.43 304.5 152.43 437.5"/><polygon class="cls-1" points="707.43 437.5 617.43 304.5 796.43 304.5 707.43 437.5"/><polygon class="cls-1" points="-26.57 437.5 -116.57 304.5 62.43 304.5 -26.57 437.5"/><polygon class="cls-1" points="64.43 571.5 -25.57 438.5 153.43 438.5 64.43 571.5"/><polygon class="cls-1" points="154.43 438.5 244.43 571.5 65.43 571.5 154.43 438.5"/><polygon class="cls-1" points="228.43 572.5 318.43 705.5 139.43 705.5 228.43 572.5"/><polygon class="cls-1" points="508.43 572.5 598.43 705.5 419.43 705.5 508.43 572.5"/><polygon class="cls-1" points="334.43 438.5 424.43 571.5 245.43 571.5 334.43 438.5"/><polygon class="cls-1" points="784.43 571.5 874.43 704.5 695.43 704.5 784.43 571.5"/><polygon class="cls-1" points="964.43 571.5 1054.43 704.5 875.43 704.5 964.43 571.5"/><polygon class="cls-1" points="875.43 705.5 785.43 572.5 964.43 572.5 875.43 705.5"/><polygon class="cls-1" points="336.43 174.5 426.43 307.5 247.43 307.5 336.43 174.5"/><polygon class="cls-1" points="516.77 173.5 608.12 308.5 426.43 308.5 516.77 173.5"/><polygon class="cls-1" points="187.99 633.08 335.12 850.5 42.5 850.5 187.99 633.08"/><polygon class="cls-1" points="140.77 704.5 232.12 839.5 50.43 839.5 140.77 704.5"/><polygon class="cls-1" points="511.77 704.5 603.12 839.5 421.43 839.5 511.77 704.5"/><polygon class="cls-1" points="691.77 703.5 783.12 838.5 601.43 838.5 691.77 703.5"/><polygon class="cls-1" points="692.78 968.5 601.43 833.5 783.12 833.5 692.78 968.5"/><polygon class="cls-1" points="493.77 881.5 585.12 1016.5 403.43 1016.5 493.77 881.5"/><polygon class="cls-1" points="604.53 570.5 515.21 438.5 692.86 438.5 604.53 570.5"/></g><g id="normal"><polygon class="cls-6" points="-23.55 174.5 -113.55 41.5 65.45 41.5 -23.55 174.5"/><polygon class="cls-6" points="66.45 307.5 -23.55 174.5 155.45 174.5 66.45 307.5"/><polygon class="cls-6" points="155.45 174.5 65.45 41.5 244.45 41.5 155.45 174.5"/><polygon class="cls-6" points="335.45 174.5 245.45 41.5 424.45 41.5 335.45 174.5"/><polygon class="cls-6" points="426.45 40.5 336.45 -92.5 515.45 -92.5 426.45 40.5"/><polygon class="cls-6" points="608.45 307.5 518.45 174.5 697.45 174.5 608.45 307.5"/><polygon class="cls-6" points="48.01 426.5 145.45 570.5 -48.36 570.5 48.01 426.5"/><polygon class="cls-6" points="410.32 839.5 319.64 705.5 499.99 705.5 410.32 839.5"/><polygon class="cls-6" points="607.45 46.5 697.45 179.5 518.45 179.5 607.45 46.5"/><polygon class="cls-6" points="425.87 139.5 539.55 307.5 313.45 307.5 425.87 139.5"/></g><g id="bright"><polygon class="cls-5" points="138.45 705.5 48.45 572.5 227.45 572.5 138.45 705.5"/></g><g id="brighter"><polygon class="cls-4" points="64.5 41.5 154.5 174.5 -24.5 174.5 64.5 41.5"/><polygon class="cls-4" points="616.5 304.5 706.5 437.5 527.5 437.5 616.5 304.5"/><polygon class="cls-4" points="315.5 882.5 405.5 1015.5 226.5 1015.5 315.5 882.5"/><polygon class="cls-4" points="335.5 437.5 245.5 304.5 424.5 304.5 335.5 437.5"/><polygon class="cls-4" points="964.5 837.5 874.5 704.5 1053.5 704.5 964.5 837.5"/></g></g><g id="large"><polygon class="cls-3" points="587.64 0 838.76 371 1090.96 0 587.64 0"/><polygon class="cls-3" points="676.64 283.5 976.92 727.14 1278.5 283.5 676.64 283.5"/><polygon class="cls-3" points="676.64 793.5 976.92 1237.14 1278.5 793.5 676.64 793.5"/><polygon class="cls-3" points="199.5 1049.5 -100.78 605.86 -402.36 1049.5 199.5 1049.5"/><polygon class="cls-3" points="742.55 605.5 425.78 137.5 107.64 605.5 742.55 605.5"/></g></g></svg>